<?xml version="1.0" encoding="utf-8"?>
<!-- Generator: Adobe Illustrator 19.2.0, SVG Export Plug-In . SVG Version: 6.00 Build 0)  -->
<!DOCTYPE svg PUBLIC "-//W3C//DTD SVG 1.1//EN" "http://www.w3.org/Graphics/SVG/1.1/DTD/svg11.dtd">
<svg version="1.1" id="Layer_1" xmlns:sketch="http://www.bohemiancoding.com/sketch/ns"
	 xmlns="http://www.w3.org/2000/svg" xmlns:xlink="http://www.w3.org/1999/xlink" x="0px" y="0px" viewBox="0 0 59 80"
	 style="enable-background:new 0 0 59 80;" xml:space="preserve">
<style type="text/css">
	.st0{fill:#0A4479;}
</style>
<title>Group</title>
<desc>Created with Sketch.</desc>
<g id="QUESTION-PROMPTS" sketch:type="MSPage">
	<g id="All_Submit_Dialogue" transform="translate(-204.000000, -294.000000)" sketch:type="MSArtboardGroup">
		<g id="Group" transform="translate(204.000000, 294.000000)" sketch:type="MSLayerGroup">
			<g id="Rectangle-47">
				<path class="st0" d="M53.6,78.7H5.4c-2.6,0-4.7-2.1-4.7-4.7v-68c0-2.6,2.1-4.7,4.7-4.7h48.2c2.6,0,4.7,2.1,4.7,4.7v68
					C58.3,76.6,56.2,78.7,53.6,78.7z M5.4,3.1c-1.6,0-2.8,1.3-2.8,2.8v68c0,1.6,1.3,2.8,2.8,2.8h48.2c1.6,0,2.8-1.3,2.8-2.8v-68
					c0-1.6-1.3-2.8-2.8-2.8H5.4z"/>
			</g>
			<g id="Line">
				<path class="st0" d="M47,18.6H10.9c-0.5,0-0.9-0.4-0.9-0.9s0.4-0.9,0.9-0.9H47c0.5,0,0.9,0.4,0.9,0.9S47.5,18.6,47,18.6z"/>
			</g>
			<g id="Line-Copy-4">
				<path class="st0" d="M47,29H10.9c-0.5,0-0.9-0.4-0.9-0.9s0.4-0.9,0.9-0.9H47c0.5,0,0.9,0.4,0.9,0.9S47.5,29,47,29z"/>
			</g>
			<g id="Line-Copy-5">
				<path class="st0" d="M47,39.3H10.9c-0.5,0-0.9-0.4-0.9-0.9c0-0.5,0.4-0.9,0.9-0.9H47c0.5,0,0.9,0.4,0.9,0.9
					C48,38.9,47.5,39.3,47,39.3z"/>
			</g>
			<g id="Line-Copy-6">
				<path class="st0" d="M28.4,49.7H10.9c-0.5,0-0.9-0.4-0.9-0.9c0-0.5,0.4-0.9,0.9-0.9h17.6c0.5,0,0.9,0.4,0.9,0.9
					C29.4,49.3,28.9,49.7,28.4,49.7z"/>
			</g>
		</g>
	</g>
</g>
</svg>
