<?xml version="1.0" encoding="utf-8"?>
<!-- Generator: Adobe Illustrator 19.2.0, SVG Export Plug-In . SVG Version: 6.00 Build 0)  -->
<!DOCTYPE svg PUBLIC "-//W3C//DTD SVG 1.1//EN" "http://www.w3.org/Graphics/SVG/1.1/DTD/svg11.dtd">
<svg version="1.1" id="Layer_1" xmlns:sketch="http://www.bohemiancoding.com/sketch/ns"
	 xmlns="http://www.w3.org/2000/svg" xmlns:xlink="http://www.w3.org/1999/xlink" x="0px" y="0px" viewBox="0 0 72 74"
	 style="enable-background:new 0 0 72 74;" xml:space="preserve">
<style type="text/css">
	.st0{fill:#4A4A4A;}
</style>
<title>Imported Layers</title>
<desc>Created with Sketch.</desc>
<g id="RTM_Office_Printer" transform="translate(-204.000000, -178.000000)" sketch:type="MSArtboardGroup">
	<g id="Imported-Layers" transform="translate(204.000000, 178.000000)" sketch:type="MSLayerGroup">
		<path id="Fill-1" sketch:type="MSShapeGroup" class="st0" d="M57.7,0.1v26.4c1.7,0,3.3,0,4.8,0c1.9,0,3.7,0,5.4,1
			c2.6,1.6,4,3.8,4,6.9c0,5.5,0,11,0,16.4c0,5.2-3.2,8.5-8.5,8.6c-1.9,0-3.7,0-5.7,0v14.4H15V59.5c-1.9,0-3.7,0-5.4,0
			c-1.9,0-3.7,0-5.4-1c-2.7-1.6-4.1-3.9-4.1-7c0-5.6,0-11.1,0-16.7c0-4.9,3.3-8.3,8.2-8.3c2.2,0,4.5,0,6.8,0V0.1H57.7L57.7,0.1z
			 M15,44.7h42.8v11.9c2.3,0,4.4,0.1,6.5,0c2.9-0.2,4.8-2.3,4.8-5.2c0-5.6,0-11.2,0-16.8c0-2.9-1.8-5-4.7-5.2c-2.3-0.1-4.7,0-7.1,0
			c-14.3,0-28.5,0-42.8-0.1c-2.4,0-4.9,0-7.3,0.1C5,29.6,3,31.7,3,34c-0.1,6,0,12,0,18c0,2.1,1.8,4.3,3.9,4.4c2.7,0.2,5.4,0,8.1,0
			V44.7L15,44.7z M54.8,3H17.9v23.4h36.9V3L54.8,3z M54.8,47.6h-37V71h37V47.6L54.8,47.6z"/>
		<path id="Fill-5" sketch:type="MSShapeGroup" class="st0" d="M23,52h26v2H23V52"/>
		<path id="Fill-6" sketch:type="MSShapeGroup" class="st0" d="M49,58v2H23v-2H49"/>
		<path id="Fill-7" sketch:type="MSShapeGroup" class="st0" d="M36,66H23v-2h13V66"/>
	</g>
</g>
</svg>
