<?xml version="1.0" encoding="UTF-8" standalone="no"?>
<svg width="35px" height="33px" viewBox="0 0 35 33" version="1.1" xmlns="http://www.w3.org/2000/svg" xmlns:xlink="http://www.w3.org/1999/xlink" xmlns:sketch="http://www.bohemiancoding.com/sketch/ns">
    <!-- Generator: Sketch 3.4.4 (17248) - http://www.bohemiancoding.com/sketch -->
    <title>Imported Layers Copy</title>
    <desc>Created with Sketch.</desc>
    <defs></defs>
    <g id="DEVICE-STATUS" stroke="none" stroke-width="1" fill="none" fill-rule="evenodd" sketch:type="MSPage">
        <g id="Menu-Icons-NotConnected-InfoStored" sketch:type="MSArtboardGroup" transform="translate(-308.000000, -58.000000)" fill="#FFFFFF">
            <g id="Imported-Layers-Copy" sketch:type="MSLayerGroup" transform="translate(308.000000, 58.000000)">
                <g sketch:type="MSShapeGroup">
                    <path d="M24.2267963,4.01314201 L23.6939402,9.07334426 C26.3669043,9.89858633 28.9017206,11.2769997 31.1109025,13.2140808 C31.3548322,13.4276544 31.6579681,13.5344412 31.9603146,13.5344412 C32.2816071,13.5344412 32.6013208,13.4139134 32.8468293,13.1720727 L34.6427517,11.4042016 C35.161793,10.8926458 35.1432418,10.0477738 34.5973603,9.564485 C31.5395556,6.85477006 27.975735,5.00641625 24.2267963,4.01314201 M12.3563411,14.0766197 C10.7502733,14.6529543 9.22196303,15.5013597 7.84798369,16.6257619 C7.26381551,17.1035543 7.21605582,17.9766934 7.75325372,18.5055236 L9.55588619,20.280854 C9.80178942,20.5234799 10.1278184,20.6491114 10.4534527,20.6491114 C10.7238278,20.6491114 10.9938083,20.5627398 11.2183972,20.3848926 C11.7504639,19.9632418 12.3180544,19.609118 12.906959,19.3079949 L12.3563411,14.0766197 M23.1547688,14.1979327 L22.5994143,19.4756345 C23.0730642,19.7398533 23.5317151,20.0401912 23.9666836,20.3848926 C24.1912726,20.5627398 24.461253,20.6491114 24.7312334,20.6491114 C25.0572624,20.6491114 25.3828967,20.5234799 25.6291946,20.2812466 L27.4322218,18.5055236 C27.9694197,17.9766934 27.92166,17.1035543 27.3378866,16.6257619 C26.0566636,15.5775238 24.6416347,14.7699487 23.1547688,14.1979327 M11.2886553,3.93108892 C7.41893585,4.90198505 3.73472925,6.77585775 0.587325843,9.564485 C0.0418390721,10.0477738 0.0228930772,10.8926458 0.542329105,11.4042016 L2.33785683,13.1720727 C2.58336535,13.4139134 2.90307901,13.5344412 3.22437151,13.5344412 C3.52671801,13.5344412 3.83024864,13.4276544 4.07417833,13.2136882 C6.37374846,11.1976948 9.02618775,9.78865875 11.8195379,8.97715762 L11.2886553,3.93108892" id="Fill-1" opacity="0.5"></path>
                    <path d="M15.6651801,23.8582117 L13.814788,0.208077212 L21.7089525,0.208077212 L19.8589551,23.8582117 L15.6651801,23.8582117" id="Fill-2"></path>
                    <path d="M20.3626028,30.0172972 C20.3626028,28.5886312 19.1982135,27.4304656 17.7618702,27.4304656 C16.325527,27.4304656 15.1611377,28.5886312 15.1611377,30.0172972 C15.1611377,31.4459632 16.325527,32.6041288 17.7618702,32.6041288 C19.1982135,32.6041288 20.3626028,31.4459632 20.3626028,30.0172972" id="Fill-3"></path>
                </g>
            </g>
        </g>
    </g>
</svg>