<?xml version="1.0" encoding="UTF-8" standalone="no"?>
<svg width="20px" height="19px" viewBox="0 0 20 19" version="1.1" xmlns="http://www.w3.org/2000/svg" xmlns:xlink="http://www.w3.org/1999/xlink" xmlns:sketch="http://www.bohemiancoding.com/sketch/ns">
    <!-- Generator: Sketch 3.4.4 (17248) - http://www.bohemiancoding.com/sketch -->
    <title>Imported Layers Copy</title>
    <desc>Created with Sketch.</desc>
    <defs></defs>
    <g id="Parcel-Scanning" stroke="none" stroke-width="1" fill="none" fill-rule="evenodd" sketch:type="MSPage">
        <g id="Parcel-Scanning-V2" sketch:type="MSArtboardGroup" transform="translate(-28.000000, -122.000000)" fill="#9B9B9B">
            <g id="Imported-Layers-Copy" sketch:type="MSLayerGroup" transform="translate(37.880000, 131.500000) scale(-1, 1) translate(-37.880000, -131.500000) translate(28.000000, 122.000000)">
                <path d="M10.1996088,11.3344918 C8.93353724,11.6049789 8.36433433,10.9101927 8.1084244,9.95272862 C8.0030293,9.55839363 7.86541409,9.16226542 7.67296103,8.80431546 C7.44979184,8.3894452 7.07072815,8.18889373 6.57273344,8.20017366 C5.72500288,8.21943632 4.87623109,8.21642834 4.02850053,8.19739706 C3.8287589,8.19288509 3.60605247,8.12780854 3.43673774,8.02206637 C1.78107455,6.9881301 0.911131188,5.41900426 0.493426488,3.57048308 C0.358414333,2.97299356 0.327351125,2.35190293 0.251515248,1.74128241 C0.206973963,1.38321675 0.378891755,1.15941126 0.696118258,1.01624284 C1.3979038,0.699594796 2.14099127,0.547923043 2.89900296,0.46179061 C5.57009176,0.158215722 8.24812206,0.161744317 10.9238385,0.355932751 C12.6288442,0.47966497 14.3107116,0.793941336 15.8974225,1.44823546 C16.6469309,1.7573057 17.3748628,2.16060679 18.0384701,2.62672845 C19.1157329,3.38340968 19.307781,4.69604714 18.595641,5.81692568 C18.2286671,6.3944584 17.7191611,6.81256802 17.115887,7.11729982 C16.9243595,7.21407589 16.8328474,7.35070773 16.7848353,7.5512592 C16.6332793,8.18415037 16.5858457,8.78892847 16.947035,9.3912192 C17.2632782,9.91854173 17.3309578,10.5317653 17.4026288,11.1382209 C17.4903809,11.881077 17.7010554,12.6201731 17.6979317,13.3602526 C17.6941139,14.2700517 17.5386243,15.1811235 17.4150656,16.0869891 C17.3887458,16.2798471 17.255469,16.4949179 17.1072101,16.6283682 C16.0278649,17.6001202 14.8708905,18.4623701 13.4545355,18.8807689 C12.873185,19.0524553 12.2685804,19.0570251 11.7047572,18.7731178 C11.0392988,18.4380748 10.7417399,17.7863259 10.8545971,16.9730136 C10.9378951,16.3729789 11.1404133,15.8173119 11.4498885,15.2979721 C11.7299201,14.8282061 11.6977578,14.4754623 11.3432208,14.05608 C11.3182892,14.0266365 11.2960186,13.9927389 11.2654181,13.9707575 C10.6042982,13.4963638 10.4703851,12.7813316 10.3711795,12.0442023 C10.3396536,11.8099267 10.2609254,11.5820141 10.1996088,11.3344918 L10.1996088,11.3344918 Z M1.79166033,1.54755674 C1.78570221,1.57543843 1.77980194,1.60332012 1.77384382,1.6312018 C3.35934003,3.18511419 3.84692249,5.22180784 4.25623954,7.30633998 C5.18987115,7.30633998 6.10481856,7.29158929 7.01918752,7.30911658 C9.78028442,7.36198766 12.526862,7.21656326 15.2541191,6.76195292 C15.9870257,6.63978254 16.6775313,6.42789329 17.2590554,5.94187267 C17.6712069,5.59740078 17.973972,5.18530712 18.0417673,4.63687086 C18.1016955,4.15171793 18.0279421,3.71041213 17.5755299,3.4205467 C17.2274138,3.19755105 16.8879166,2.95702811 16.5234301,2.76422797 C14.7359941,1.81879581 12.7884409,1.45002868 10.8047918,1.27631767 C8.48766162,1.07345236 6.16382131,1.09045903 3.84460865,1.27556567 C3.15740026,1.33046136 2.4758029,1.45494558 1.79166033,1.54755674 L1.79166033,1.54755674 Z M15.7951511,7.63692887 C14.5499619,7.7881957 13.3311504,7.97081497 12.1056866,8.07540022 C10.877504,8.18021685 9.64272705,8.20705732 8.43895544,8.26669636 C8.60179144,8.70036651 8.76161945,9.10991495 8.90796939,9.52426459 C8.96517891,9.68611721 8.97466562,9.86532358 9.03580866,10.0251516 C9.21594056,10.4960744 9.4211197,10.5947594 9.90754524,10.4694654 C10.3661469,10.3512863 10.8015525,10.542409 10.9496378,10.9952839 C11.1010203,11.4581662 11.198317,11.9408318 11.2896555,12.4204893 C11.3470386,12.7218082 11.4405753,12.9557368 11.6922625,13.1741626 C12.4326312,13.8166562 12.8467494,14.7215963 12.1755065,15.7607965 C11.8731464,16.2289428 11.6703389,16.7595625 11.6885603,17.3393512 C11.7019227,17.7657906 11.9128286,18.0227996 12.3400779,18.0315343 C12.727587,18.0394014 13.170339,18.0583748 13.4952011,17.8909111 C14.3201983,17.4656286 15.0936548,16.9400415 15.8860848,16.4518227 C16.3137968,16.1882771 16.5941755,15.840913 16.5192652,15.2984927 C16.51296,15.2525052 16.5320491,15.2033941 16.5365032,15.1554978 C16.6044142,14.4185998 16.7256012,13.6813548 16.7217834,12.9448039 C16.718949,12.3944009 16.5129021,11.8478157 16.4729885,11.2941154 C16.4253814,10.6339789 16.2433406,10.0335392 15.9269818,9.45924589 C15.7163073,9.07676929 15.6785339,8.65391631 15.7235958,8.22389045 C15.7453459,8.0160504 15.7739796,7.80896235 15.7951511,7.63692887 L15.7951511,7.63692887 Z M3.13894744,6.65279785 C3.09064617,5.4156492 2.00256621,3.03274829 1.22465556,2.44891038 C1.43232207,4.04857882 1.95056281,5.46799967 3.13894744,6.65279785 L3.13894744,6.65279785 Z" id="Fill-1" sketch:type="MSShapeGroup"></path>
            </g>
        </g>
    </g>
</svg>