<?xml version="1.0" encoding="UTF-8" standalone="no"?>
<svg width="15px" height="15px" viewBox="0 0 15 15" version="1.1" xmlns="http://www.w3.org/2000/svg" xmlns:xlink="http://www.w3.org/1999/xlink" xmlns:sketch="http://www.bohemiancoding.com/sketch/ns">
    <!-- Generator: Sketch 3.4.4 (17248) - http://www.bohemiancoding.com/sketch -->
    <title>Page 1 Copy 3</title>
    <desc>Created with Sketch.</desc>
    <defs>
        <path id="path-1" d="M2.84217094e-14,0 L15.0003409,0 L15.0003409,15 L2.84217094e-14,15 L2.84217094e-14,0 Z"></path>
    </defs>
    <g id="notifications" stroke="none" stroke-width="1" fill="none" fill-rule="evenodd" sketch:type="MSPage">
        <g id="success-feedback" sketch:type="MSArtboardGroup" transform="translate(-31.000000, -125.000000)">
            <g id="Page-1-Copy-3" sketch:type="MSLayerGroup" transform="translate(31.000000, 125.000000)">
                <mask id="mask-2" sketch:name="Clip 2" fill="white">
                    <use xlink:href="#path-1"></use>
                </mask>
                <g id="Clip-2"></g>
                <path d="M6.46857955,10.9763523 L6.18051136,10.7152159 L3.058125,7.89044318 L4.16267045,6.72044318 L6.36903409,8.72089773 L10.7422159,4.02419318 L11.9435795,5.10180682 L6.46857955,10.9763523 Z M7.49948864,0.000102272727 C3.35914773,0.000102272727 0.000170454545,3.35771591 0.000170454545,7.49976136 C0.000170454545,11.6421477 3.35914773,15.0001023 7.49948864,15.0001023 C11.6425568,15.0001023 15.0005114,11.6421477 15.0005114,7.49976136 C15.0005114,3.35771591 11.6425568,0.000102272727 7.49948864,0.000102272727 L7.49948864,0.000102272727 Z" id="Fill-1" fill="#1194F6" sketch:type="MSShapeGroup" mask="url(#mask-2)"></path>
            </g>
        </g>
    </g>
</svg>