<?xml version="1.0" encoding="UTF-8" standalone="no"?>
<svg width="35px" height="26px" viewBox="0 0 35 26" version="1.1" xmlns="http://www.w3.org/2000/svg" xmlns:xlink="http://www.w3.org/1999/xlink" xmlns:sketch="http://www.bohemiancoding.com/sketch/ns">
    <!-- Generator: Sketch 3.4.4 (17248) - http://www.bohemiancoding.com/sketch -->
    <title>Imported Layers Copy 2</title>
    <desc>Created with Sketch.</desc>
    <defs></defs>
    <g id="MENU" stroke="none" stroke-width="1" fill="none" fill-rule="evenodd" sketch:type="MSPage">
        <g id="Main_00_Adjustments_Select" sketch:type="MSArtboardGroup" transform="translate(-308.000000, -62.000000)" fill="#FFFFFF">
            <g id="Group-Copy" sketch:type="MSLayerGroup" transform="translate(0.000000, 32.000000)">
                <g id="Imported-Layers-Copy-2" transform="translate(308.000000, 30.000000)" sketch:type="MSShapeGroup">
                    <g>
                        <path d="M0.542344061,8.30804789 L2.33792131,10.0854681 C2.814742,10.5571574 3.57141854,10.5705778 4.07429069,10.1273083 C7.90701327,6.74930212 12.7174551,5.05319409 17.5318441,5.0389842 C22.3872839,5.02477431 27.2466709,6.72088234 31.1117605,10.127703 C31.6146326,10.5705778 32.3713092,10.5571574 32.8477352,10.0854681 L34.6437071,8.30804789 C35.1627628,7.79372889 35.144211,6.94429336 34.5983144,6.45839413 C24.941906,-2.1437195 10.2437504,-2.1437195 0.58734204,6.45839413 C0.041840226,6.94429336 0.0228937086,7.79372889 0.542344061,8.30804789" id="Fill-1"></path>
                        <path d="M15.0612972,22.6825338 L17.5930256,25.1893949 L20.124754,22.6825338 C20.7349897,22.0778242 20.5924961,21.0298449 19.818452,20.6568353 C18.4171991,19.9814709 16.7684574,19.9814709 15.3675992,20.6568353 C14.5935551,21.0298449 14.4506667,22.0778242 15.0612972,22.6825338" id="Fill-2"></path>
                        <path d="M7.75346754,15.4477272 L9.55614973,17.232647 C10.0061295,17.6786796 10.7233341,17.7319667 11.2187066,17.3372476 C14.9318293,14.3784331 20.2542219,14.3784331 23.9673445,17.3372476 C24.462717,17.7319667 25.1795269,17.6786796 25.6299015,17.2330418 L27.4329784,15.4477272 C27.9701911,14.9160406 27.9224301,14.0381853 27.3386405,13.5578121 C21.700078,8.9194678 13.4855785,8.9194678 7.84780541,13.5578121 C7.26401584,14.0381853 7.21625483,14.9156458 7.75346754,15.4477272" id="Fill-3"></path>
                    </g>
                </g>
            </g>
        </g>
    </g>
</svg>