<?xml version="1.0" encoding="UTF-8" standalone="no"?>
<svg width="71px" height="19px" viewBox="0 0 71 19" version="1.1" xmlns="http://www.w3.org/2000/svg" xmlns:xlink="http://www.w3.org/1999/xlink" xmlns:sketch="http://www.bohemiancoding.com/sketch/ns">
    <!-- Generator: Sketch 3.4.4 (17248) - http://www.bohemiancoding.com/sketch -->
    <title>or + Imported Layers Copy + Imported Layers</title>
    <desc>Created with Sketch.</desc>
    <defs></defs>
    <g id="Parcel-Scanning" stroke="none" stroke-width="1" fill="none" fill-rule="evenodd" sketch:type="MSPage">
        <g id="Parcel-Scanning-V2" sketch:type="MSArtboardGroup" transform="translate(-28.000000, -122.000000)">
            <g id="or-+-Imported-Layers-Copy-+-Imported-Layers" sketch:type="MSLayerGroup" transform="translate(28.000000, 122.000000)">
                <path d="M26.4990234,10.7714844 C26.4990234,9.83397969 26.7529271,9.06152647 27.2607422,8.45410156 C27.7685572,7.84667665 28.4580035,7.54296875 29.3291016,7.54296875 C30.2080122,7.54296875 30.9023412,7.8457001 31.4121094,8.45117188 C31.9218775,9.05664365 32.1767578,9.83007342 32.1767578,10.7714844 L32.1767578,10.9003906 C32.1767578,11.8457079 31.9228541,12.6191376 31.4150391,13.2207031 C30.907224,13.8222686 30.2158247,14.1230469 29.3408203,14.1230469 C28.4658159,14.1230469 27.77344,13.8212921 27.2636719,13.2177734 C26.7539037,12.6142548 26.4990234,11.8418016 26.4990234,10.9003906 L26.4990234,10.7714844 Z M27.6533203,10.9003906 C27.6533203,11.572269 27.7949205,12.1269509 28.078125,12.5644531 C28.3613295,13.0019553 28.7822238,13.2207031 29.3408203,13.2207031 C29.8916043,13.2207031 30.3095689,13.0019553 30.5947266,12.5644531 C30.8798842,12.1269509 31.0224609,11.572269 31.0224609,10.9003906 L31.0224609,10.7714844 C31.0224609,10.1074186 30.8789077,9.55468971 30.5917969,9.11328125 C30.3046861,8.67187279 29.8837918,8.45117188 29.3291016,8.45117188 C28.7783176,8.45117188 28.3613295,8.67187279 28.078125,9.11328125 C27.7949205,9.55468971 27.6533203,10.1074186 27.6533203,10.7714844 L27.6533203,10.9003906 Z M36.5888672,8.6796875 L35.9970703,8.64453125 C35.6923813,8.64453125 35.4355479,8.71679615 35.2265625,8.86132812 C35.0175771,9.0058601 34.8564459,9.20898307 34.7431641,9.47070312 L34.7431641,14 L33.5888672,14 L33.5888672,7.66015625 L34.6201172,7.66015625 L34.7314453,8.5859375 C34.9111337,8.25781086 35.1328112,8.00195404 35.3964844,7.81835938 C35.6601576,7.63476471 35.9638655,7.54296875 36.3076172,7.54296875 C36.3935551,7.54296875 36.4755855,7.54980462 36.5537109,7.56347656 C36.6318363,7.57714851 36.6962888,7.5917968 36.7470703,7.60742188 L36.5888672,8.6796875 Z" id="or" fill="#9B9B9B" sketch:type="MSShapeGroup"></path>
                <g id="Imported-Layers-Copy" transform="translate(9.880000, 9.500000) scale(-1, 1) translate(-9.880000, -9.500000) " fill="#9B9B9B" sketch:type="MSShapeGroup">
                    <path d="M10.1996088,11.3344918 C8.93353724,11.6049789 8.36433433,10.9101927 8.1084244,9.95272862 C8.0030293,9.55839363 7.86541409,9.16226542 7.67296103,8.80431546 C7.44979184,8.3894452 7.07072815,8.18889373 6.57273344,8.20017366 C5.72500288,8.21943632 4.87623109,8.21642834 4.02850053,8.19739706 C3.8287589,8.19288509 3.60605247,8.12780854 3.43673774,8.02206637 C1.78107455,6.9881301 0.911131188,5.41900426 0.493426488,3.57048308 C0.358414333,2.97299356 0.327351125,2.35190293 0.251515248,1.74128241 C0.206973963,1.38321675 0.378891755,1.15941126 0.696118258,1.01624284 C1.3979038,0.699594796 2.14099127,0.547923043 2.89900296,0.46179061 C5.57009176,0.158215722 8.24812206,0.161744317 10.9238385,0.355932751 C12.6288442,0.47966497 14.3107116,0.793941336 15.8974225,1.44823546 C16.6469309,1.7573057 17.3748628,2.16060679 18.0384701,2.62672845 C19.1157329,3.38340968 19.307781,4.69604714 18.595641,5.81692568 C18.2286671,6.3944584 17.7191611,6.81256802 17.115887,7.11729982 C16.9243595,7.21407589 16.8328474,7.35070773 16.7848353,7.5512592 C16.6332793,8.18415037 16.5858457,8.78892847 16.947035,9.3912192 C17.2632782,9.91854173 17.3309578,10.5317653 17.4026288,11.1382209 C17.4903809,11.881077 17.7010554,12.6201731 17.6979317,13.3602526 C17.6941139,14.2700517 17.5386243,15.1811235 17.4150656,16.0869891 C17.3887458,16.2798471 17.255469,16.4949179 17.1072101,16.6283682 C16.0278649,17.6001202 14.8708905,18.4623701 13.4545355,18.8807689 C12.873185,19.0524553 12.2685804,19.0570251 11.7047572,18.7731178 C11.0392988,18.4380748 10.7417399,17.7863259 10.8545971,16.9730136 C10.9378951,16.3729789 11.1404133,15.8173119 11.4498885,15.2979721 C11.7299201,14.8282061 11.6977578,14.4754623 11.3432208,14.05608 C11.3182892,14.0266365 11.2960186,13.9927389 11.2654181,13.9707575 C10.6042982,13.4963638 10.4703851,12.7813316 10.3711795,12.0442023 C10.3396536,11.8099267 10.2609254,11.5820141 10.1996088,11.3344918 L10.1996088,11.3344918 Z M1.79166033,1.54755674 C1.78570221,1.57543843 1.77980194,1.60332012 1.77384382,1.6312018 C3.35934003,3.18511419 3.84692249,5.22180784 4.25623954,7.30633998 C5.18987115,7.30633998 6.10481856,7.29158929 7.01918752,7.30911658 C9.78028442,7.36198766 12.526862,7.21656326 15.2541191,6.76195292 C15.9870257,6.63978254 16.6775313,6.42789329 17.2590554,5.94187267 C17.6712069,5.59740078 17.973972,5.18530712 18.0417673,4.63687086 C18.1016955,4.15171793 18.0279421,3.71041213 17.5755299,3.4205467 C17.2274138,3.19755105 16.8879166,2.95702811 16.5234301,2.76422797 C14.7359941,1.81879581 12.7884409,1.45002868 10.8047918,1.27631767 C8.48766162,1.07345236 6.16382131,1.09045903 3.84460865,1.27556567 C3.15740026,1.33046136 2.4758029,1.45494558 1.79166033,1.54755674 L1.79166033,1.54755674 Z M15.7951511,7.63692887 C14.5499619,7.7881957 13.3311504,7.97081497 12.1056866,8.07540022 C10.877504,8.18021685 9.64272705,8.20705732 8.43895544,8.26669636 C8.60179144,8.70036651 8.76161945,9.10991495 8.90796939,9.52426459 C8.96517891,9.68611721 8.97466562,9.86532358 9.03580866,10.0251516 C9.21594056,10.4960744 9.4211197,10.5947594 9.90754524,10.4694654 C10.3661469,10.3512863 10.8015525,10.542409 10.9496378,10.9952839 C11.1010203,11.4581662 11.198317,11.9408318 11.2896555,12.4204893 C11.3470386,12.7218082 11.4405753,12.9557368 11.6922625,13.1741626 C12.4326312,13.8166562 12.8467494,14.7215963 12.1755065,15.7607965 C11.8731464,16.2289428 11.6703389,16.7595625 11.6885603,17.3393512 C11.7019227,17.7657906 11.9128286,18.0227996 12.3400779,18.0315343 C12.727587,18.0394014 13.170339,18.0583748 13.4952011,17.8909111 C14.3201983,17.4656286 15.0936548,16.9400415 15.8860848,16.4518227 C16.3137968,16.1882771 16.5941755,15.840913 16.5192652,15.2984927 C16.51296,15.2525052 16.5320491,15.2033941 16.5365032,15.1554978 C16.6044142,14.4185998 16.7256012,13.6813548 16.7217834,12.9448039 C16.718949,12.3944009 16.5129021,11.8478157 16.4729885,11.2941154 C16.4253814,10.6339789 16.2433406,10.0335392 15.9269818,9.45924589 C15.7163073,9.07676929 15.6785339,8.65391631 15.7235958,8.22389045 C15.7453459,8.0160504 15.7739796,7.80896235 15.7951511,7.63692887 L15.7951511,7.63692887 Z M3.13894744,6.65279785 C3.09064617,5.4156492 2.00256621,3.03274829 1.22465556,2.44891038 C1.43232207,4.04857882 1.95056281,5.46799967 3.13894744,6.65279785 L3.13894744,6.65279785 Z" id="Fill-1"></path>
                </g>
                <g id="Imported-Layers" transform="translate(45.000000, 1.000000)" sketch:type="MSShapeGroup">
                    <g>
                        <path d="M13.0090278,15.9262673 C9.03695,15.9262673 5.06494444,15.9264147 1.09279444,15.9261198 C0.249238889,15.9260461 0.00411666667,15.6721106 0.00411666667,14.8016221 C0.00411666667,10.2426544 0.00397222222,5.68368664 0.00418888889,1.12464516 C0.00426111111,0.360700461 0.278416667,0.0743225806 1.02064444,0.0742488479 C9.00083889,0.073437788 16.9811056,0.0735115207 24.9613722,0.0741013825 C25.7294556,0.0741751152 25.9958111,0.351705069 25.9958111,1.14315207 C25.9959556,5.70211982 25.9959556,10.2610138 25.9958833,14.8199816 C25.9958833,15.6627465 25.7421667,15.9259724 24.9252611,15.9260461 C20.9531833,15.9264885 16.9811056,15.9262673 13.0090278,15.9262673 L13.0090278,15.9262673 Z M13.1470444,11.7928848 L11.84755,11.7928848 C9.72985,11.7928848 7.61215,11.7959078 5.49445,11.7912627 C4.69545556,11.7895668 4.84647222,11.8338065 4.84033333,12.4779355 C4.83571111,12.956977 4.83939444,13.4360922 4.83939444,13.9151336 C4.83946667,14.5028571 4.83946667,14.5033733 5.41753333,14.5033733 C10.5432889,14.5035207 15.6690444,14.503447 20.7948,14.503447 C20.8670222,14.503447 20.9392444,14.5018986 21.0113944,14.5031521 C21.26475,14.5076498 21.3753222,14.3974931 21.3686778,14.1234286 C21.3538722,13.5096037 21.3643444,12.8951889 21.3640556,12.2809954 C21.3637667,11.803871 21.3541611,11.7931797 20.8717889,11.793106 C18.29685,11.7925899 15.7219111,11.7928848 13.1470444,11.7928848 L13.1470444,11.7928848 Z M17.9041778,6.08759447 C17.9041778,5.7559447 17.8931278,5.42370507 17.9077889,5.09264516 C17.9188389,4.84283871 17.8241556,4.7240553 17.5797556,4.72442396 C16.90585,4.72560369 16.2319444,4.72412903 15.5580389,4.72545622 C15.3397111,4.72582488 15.2354222,4.82285714 15.2391778,5.0641106 C15.2497944,5.73957604 15.24965,6.4155576 15.2391056,7.09102304 C15.2354944,7.32519816 15.3241833,7.43904147 15.5482167,7.43963134 C16.2341111,7.44154839 16.9200056,7.44258065 17.6059,7.43874654 C17.8046556,7.43764055 17.9137111,7.34407373 17.90685,7.11948387 C17.8962333,6.7758894 17.9040333,6.43163134 17.9041778,6.08759447 L17.9041778,6.08759447 Z M1.43736667,13.1611429 C1.43736667,13.4800369 1.45072778,13.7996682 1.43325,14.11753 C1.41858889,14.3835576 1.51442778,14.505659 1.77767778,14.5040369 C2.43843889,14.4999816 3.0992,14.5026359 3.75988889,14.5026359 C3.99822222,14.5026359 4.09832222,14.3921106 4.09377222,14.138765 C4.08178333,13.4767189 4.08236111,12.8141567 4.09348333,12.1520369 C4.09767222,11.9017143 4.00840556,11.7899355 3.76162222,11.7916313 C3.08887222,11.7962028 2.41612222,11.7952442 1.74337222,11.7923687 C1.51435556,11.7914101 1.42422222,11.8947834 1.43382778,12.131023 C1.44769444,12.4738802 1.43736667,12.8177696 1.43736667,13.1611429 L1.43736667,13.1611429 Z M15.2428611,9.62123502 C15.2428611,9.95281106 15.2539111,10.2848295 15.2391778,10.6156682 C15.2284167,10.8583226 15.3396389,10.9554286 15.5559444,10.9561659 C16.24155,10.9584516 16.9270833,10.9597788 17.6126167,10.9543963 C17.8113,10.9528479 17.9108944,10.8536037 17.9077167,10.6297512 C17.8978222,9.94226728 17.8986167,9.25448848 17.9072833,8.56693088 C17.9101,8.34256221 17.8120944,8.25223963 17.6080667,8.25201843 C16.9224611,8.25120737 16.2369278,8.25275576 15.5513944,8.25083871 C15.3247611,8.25024885 15.2299333,8.3524424 15.2393944,8.58993548 C15.2530444,8.93323502 15.2428611,9.27741935 15.2428611,9.62123502 L15.2428611,9.62123502 Z M8.33516667,9.56814747 C8.33516667,9.911447 8.34672222,10.2552627 8.33141111,10.5978986 C8.32,10.8544885 8.43057222,10.9580829 8.6671,10.9579355 C9.32757222,10.9574931 9.98811667,10.956977 10.6486611,10.9582304 C10.88035,10.9587465 10.99605,10.8720369 10.9907056,10.6079263 C10.9768389,9.93393548 10.9787167,9.25928111 10.9900556,8.58514286 C10.9940278,8.34661751 10.9047611,8.24906912 10.6774056,8.25017512 C10.0049444,8.25349309 9.33233889,8.25445161 8.65987778,8.24951152 C8.41035,8.24759447 8.32108333,8.3637235 8.33184444,8.61198157 C8.34556667,8.93013825 8.33516667,9.24940092 8.33516667,9.56814747 L8.33516667,9.56814747 Z M1.43736667,9.57411982 C1.43736667,9.91741935 1.44798333,10.261235 1.43368333,10.6039447 C1.42400556,10.835318 1.50735,10.9557972 1.73513889,10.9563134 C2.41980556,10.9580092 3.1044,10.9593364 3.78899444,10.9550599 C3.98464444,10.9538802 4.09536111,10.8659171 4.09254444,10.6391152 C4.08416667,9.95251613 4.08503333,9.26569585 4.0924,8.57909677 C4.09471111,8.36534562 4.01692778,8.25246083 3.80437778,8.25223963 C3.10772222,8.25142857 2.41106667,8.2519447 1.71441111,8.2519447 C1.49723889,8.2519447 1.42682222,8.36873733 1.43433333,8.58101382 C1.44588889,8.91163134 1.43736667,9.24305991 1.43736667,9.57411982 L1.43736667,9.57411982 Z M18.7030278,6.06879263 C18.7030278,6.41260829 18.7134278,6.75686636 18.6994889,7.10009217 C18.6897389,7.33957604 18.7920778,7.4402212 19.0135111,7.44036866 C19.6870556,7.44095853 20.3606,7.44125346 21.0340722,7.44036866 C21.2480667,7.44007373 21.3657889,7.35388018 21.3626111,7.10930876 C21.3538722,6.42182488 21.3548111,5.73404608 21.36225,5.04648848 C21.3646333,4.82374194 21.2607778,4.72774194 21.0609389,4.72663594 C20.3754056,4.72302304 19.6898,4.72471889 19.0042667,4.72523502 C18.7762611,4.72545622 18.6900278,4.84224885 18.6995611,5.07435945 C18.7131389,5.40534562 18.7030278,5.73729032 18.7030278,6.06879263 L18.7030278,6.06879263 Z M11.7859444,6.06031336 C11.7859444,6.39196313 11.7980056,6.72412903 11.7821167,7.05496774 C11.7693333,7.32106912 11.8682778,7.44376037 12.1308056,7.44221198 C12.7924333,7.43852535 13.4541333,7.43948387 14.1157611,7.44147465 C14.3564778,7.44221198 14.4538333,7.33603687 14.44885,7.08121659 C14.4359944,6.41821198 14.4362111,5.75469124 14.44885,5.09168664 C14.4536167,4.84261751 14.3694778,4.72346544 14.1233444,4.72420276 C13.4496556,4.72604608 12.7759667,4.7240553 12.1022778,4.72545622 C11.8832278,4.72589862 11.7741722,4.82588018 11.7829833,5.06558525 C11.7950444,5.39679263 11.7860167,5.72873733 11.7859444,6.06031336 L11.7859444,6.06031336 Z M9.66759444,7.44103226 C9.99216111,7.44103226 10.3168,7.43852535 10.6412944,7.44184332 C10.8703111,7.44420276 10.9954722,7.36847926 10.9903444,7.10023963 C10.9774167,6.42551152 10.9793667,5.75026728 10.9898389,5.07539171 C10.99345,4.84586175 10.9181944,4.72508756 10.6877333,4.72508756 C10.0025611,4.72494009 9.31731667,4.72324424 8.63214444,4.72641475 C8.43100556,4.72737327 8.32996667,4.8238894 8.33242222,5.04641475 C8.34022222,5.73360369 8.34123333,6.42101382 8.33206111,7.10812903 C8.32881111,7.35152074 8.44212778,7.44014747 8.65785556,7.44058986 C8.99441111,7.44132719 9.33103889,7.44081106 9.66759444,7.44103226 L9.66759444,7.44103226 Z M4.08958333,6.07786175 C4.08958333,5.73419355 4.08221667,5.39023041 4.09225556,5.04685714 C4.09875556,4.82418433 3.9936,4.72752074 3.79275,4.72648848 C3.10743333,4.72317051 2.42204444,4.72390783 1.73672778,4.72575115 C1.53782778,4.72626728 1.43137222,4.81054378 1.43426111,5.03786175 C1.44307222,5.73743779 1.44271111,6.43723502 1.43455,7.13681106 C1.43180556,7.36980645 1.55241667,7.43933641 1.74604444,7.43992627 C2.4193,7.44176959 3.09262778,7.43992627 3.76595556,7.44117972 C4.01136667,7.44162212 4.10366667,7.32003687 4.09319444,7.072 C4.07918333,6.74116129 4.08972778,6.40929032 4.08958333,6.07786175 L4.08958333,6.07786175 Z M18.7030278,2.54702304 C18.7030278,2.89061751 18.7137167,3.23465438 18.6993444,3.57758525 C18.6893056,3.81574194 18.7825444,3.91579724 19.0101889,3.91483871 C19.6952889,3.91196313 20.3803889,3.91410138 21.0654167,3.91321659 C21.2724056,3.91299539 21.3647056,3.81360369 21.3623222,3.59388018 C21.3548833,2.90683871 21.3537278,2.21957604 21.3628278,1.53253456 C21.3657889,1.30801843 21.2613556,1.21164977 21.0644056,1.21002765 C20.3793778,1.20464516 19.6942778,1.20648848 19.0091778,1.20818433 C18.7877444,1.20870046 18.6884389,1.31509677 18.6992722,1.55325346 C18.7142222,1.88387097 18.7030278,2.21574194 18.7030278,2.54702304 L18.7030278,2.54702304 Z M15.2427889,2.55948387 C15.2427889,2.89105991 15.2541278,3.22315207 15.2391056,3.55399078 C15.2277667,3.80423963 15.3182611,3.91734562 15.5667778,3.91564977 C16.2403222,3.91085714 16.9138667,3.91270046 17.5874111,3.91461751 C17.8089889,3.91520737 17.9114722,3.82451613 17.9077167,3.58245161 C17.8973889,2.90728111 17.8967389,2.2316682 17.90815,1.5564977 C17.9121944,1.31922581 17.8172944,1.20980645 17.5973056,1.20884793 C16.9117722,1.20575115 16.2261667,1.20538249 15.5406333,1.20921659 C15.3158056,1.21047005 15.2285611,1.33264516 15.2391056,1.56505069 C15.2539833,1.8958894 15.2428611,2.22798157 15.2427889,2.55948387 L15.2427889,2.55948387 Z M10.9860833,2.59015668 C10.9860833,2.24685714 10.9754667,1.90311521 10.9897667,1.56040553 C10.9994444,1.32873733 10.9149444,1.20884793 10.6877333,1.20825806 C10.0032111,1.20648848 9.31868889,1.20523502 8.63416667,1.20951152 C8.43750556,1.21069124 8.32953333,1.30145622 8.33227778,1.52707834 C8.34072778,2.21360369 8.33993333,2.9002765 8.33242222,3.58680184 C8.33011111,3.80070046 8.40782222,3.91299539 8.62058889,3.91314286 C9.3171,3.91373272 10.0136833,3.91336406 10.7102667,3.91321659 C10.9281611,3.91321659 10.9966278,3.79465438 10.9891889,3.58318894 C10.9775611,3.25257143 10.9860833,2.92121659 10.9860833,2.59015668 L10.9860833,2.59015668 Z M4.08972778,2.59517051 C4.08972778,2.25179724 4.07824444,1.90790783 4.09341111,1.56527189 C4.10489444,1.30705991 3.98998889,1.20670968 3.75533889,1.20678341 C3.09472222,1.20693088 2.43410556,1.20759447 1.77348889,1.20641475 C1.54071667,1.20597235 1.4274,1.29585253 1.43281667,1.55863594 C1.44653889,2.23277419 1.44473333,2.90757604 1.43339444,3.58178802 C1.42942222,3.82193548 1.52244444,3.9161659 1.74806667,3.91505991 C2.42067222,3.91196313 3.09335,3.91100461 3.76602778,3.9157235 C4.01613333,3.91741935 4.10359444,3.79870968 4.09305,3.5515576 C4.07947222,3.23332719 4.08972778,2.91399078 4.08972778,2.59517051 L4.08972778,2.59517051 Z M14.4445167,2.56582488 C14.4445167,2.22215668 14.4347667,1.87804608 14.4479833,1.53489401 C14.4565056,1.31170507 14.3569111,1.21142857 14.1557,1.21010138 C13.4703833,1.20552995 12.7850667,1.20604608 12.09975,1.20862673 C11.8834444,1.20943779 11.7782889,1.30971429 11.7821889,1.55045161 C11.7930944,2.22532719 11.7920833,2.90064516 11.7826222,3.5756682 C11.7793722,3.81198157 11.87225,3.91498618 12.0981611,3.91439631 C12.7834778,3.91262673 13.4687944,3.91358525 14.1541111,3.91373272 C14.3618944,3.91373272 14.4555667,3.81928111 14.4476944,3.59675576 C14.4355611,3.25352995 14.4445167,2.90949309 14.4445167,2.56582488 L14.4445167,2.56582488 Z M14.4445889,9.62189862 C14.4445889,9.29047005 14.4310111,8.95830415 14.44885,8.62790783 C14.4632222,8.36092166 14.3722222,8.24494009 14.1041333,8.2483318 C13.4429389,8.25666359 12.7816,8.25386175 12.1204056,8.24965899 C11.8794722,8.2481106 11.77735,8.34683871 11.7819722,8.60364977 C11.7938167,9.26621198 11.7945389,9.92936406 11.7816111,10.5918525 C11.7766278,10.8459355 11.8754278,10.9571244 12.1136167,10.9572719 C12.7869444,10.9577143 13.4602,10.9585253 14.1334556,10.9565346 C14.35135,10.955871 14.4593944,10.8580276 14.4482722,10.6158894 C14.4331778,10.2852719 14.4445167,9.95325346 14.4445889,9.62189862 L14.4445889,9.62189862 Z M21.35965,9.63207373 C21.35965,9.28847926 21.3512,8.94466359 21.3626833,8.60151152 C21.3702667,8.37360369 21.2924833,8.25091244 21.0589889,8.25128111 C20.3738889,8.25231336 19.6888611,8.25334562 19.0038333,8.25054378 C18.7709889,8.24958525 18.6953,8.36173272 18.6990556,8.59406452 C18.7101056,9.26871889 18.7107556,9.94381567 18.6989111,10.61847 C18.69465,10.8609032 18.7982167,10.9562396 19.01575,10.9567558 C19.6887889,10.9582304 20.3618278,10.9576406 21.0348667,10.9572719 C21.2754389,10.9571244 21.3757556,10.8406267 21.3634778,10.5889032 C21.3478778,10.2706728 21.3597222,9.95104147 21.35965,9.63207373 L21.35965,9.63207373 Z M24.8073222,2.54650691 C24.8073222,2.2278341 24.7920833,1.90812903 24.8117278,1.59070968 C24.8301444,1.29260829 24.6966778,1.20117972 24.4300333,1.2040553 C23.7937556,1.21091244 23.1573333,1.20884793 22.5209833,1.20516129 C22.2744889,1.20368664 22.1489667,1.28670968 22.1556833,1.57035945 C22.1713556,2.2318894 22.1686833,2.89423041 22.1564778,3.55590783 C22.1519278,3.8039447 22.2300722,3.91859908 22.4817667,3.91623963 C23.1540833,3.90982488 23.8265444,3.91174194 24.4988611,3.91520737 C24.7295389,3.91646083 24.8184444,3.80984332 24.8104278,3.5761106 C24.7986556,3.23325346 24.8073944,2.88973272 24.8073222,2.54650691 L24.8073222,2.54650691 Z M22.1606667,6.07933641 C22.1606667,6.41061751 22.1746056,6.74278341 22.1564056,7.07303226 C22.1410222,7.35152074 22.2607667,7.44516129 22.5147,7.44294931 C23.1637611,7.43734562 23.8128222,7.43918894 24.4618833,7.44213825 C24.6929944,7.44317051 24.8158444,7.36353917 24.8112222,7.09810138 C24.7995222,6.42337327 24.79945,5.74820276 24.8113667,5.07347465 C24.8159167,4.81282949 24.7040444,4.72213825 24.4682389,4.72331797 C23.8071167,4.72656221 23.1459944,4.72670968 22.4849444,4.7236129 C22.2400389,4.72243318 22.1447778,4.83354839 22.1567667,5.08556682 C22.1725833,5.4161106 22.1606667,5.74798157 22.1606667,6.07933641 L22.1606667,6.07933641 Z M22.1607389,9.58569585 C22.1607389,9.92884793 22.1715722,10.2725899 22.1570556,10.6151521 C22.1468722,10.8541935 22.2481278,10.9565346 22.4691278,10.9569032 C23.1414444,10.9581567 23.8137611,10.9580092 24.48615,10.9575668 C24.7001444,10.9574194 24.8146167,10.8734378 24.8108611,10.6275392 C24.8003889,9.94130876 24.8025556,9.25478341 24.8101389,8.56840553 C24.8125944,8.34934562 24.7248444,8.25091244 24.5148222,8.25120737 C23.8305167,8.25209217 23.1461389,8.25378802 22.4618333,8.25010138 C22.2273278,8.24884793 22.1481,8.36173272 22.1573444,8.59295853 C22.1704889,8.92335484 22.1606667,9.25470968 22.1607389,9.58569585 L22.1607389,9.58569585 Z M24.8073944,13.12553 C24.8073944,12.79447 24.7985111,12.4631152 24.8104278,12.1325714 C24.8188056,11.8991336 24.7301889,11.7911889 24.4995111,11.7922212 C23.82705,11.7953917 23.1545167,11.7951705 22.4820556,11.7922212 C22.2642333,11.7912627 22.1530833,11.8680184 22.1569833,12.1154654 C22.1677444,12.8018433 22.1667333,13.4885899 22.1573444,14.1749677 C22.1543111,14.3952811 22.2448056,14.4987281 22.4483278,14.4999078 C23.1327778,14.5038157 23.8173,14.5030783 24.50175,14.5017512 C24.7249889,14.5013825 24.8198167,14.3897512 24.8106444,14.1552074 C24.7973556,13.812424 24.80725,13.4687558 24.8073944,13.12553 L24.8073944,13.12553 Z M7.53162222,9.6324424 C7.53162222,9.27601843 7.52454444,8.91952074 7.53422222,8.56339171 C7.54028889,8.34086636 7.44351111,8.25010138 7.23457222,8.25076498 C6.54846111,8.25275576 5.86235,8.25246083 5.17623889,8.25128111 C4.96101667,8.25091244 4.88453333,8.35893088 4.88691667,8.57437788 C4.89471667,9.26245161 4.89565556,9.95074654 4.88662778,10.6387465 C4.88373889,10.8645899 4.98672778,10.9549124 5.187,10.9556498 C5.87311111,10.9580829 6.55915,10.9580829 7.24518889,10.9549862 C7.45225,10.9540276 7.54238333,10.8460829 7.53472778,10.6276866 C7.5231,10.2963318 7.53169444,9.96423963 7.53162222,9.6324424 L7.53162222,9.6324424 Z M7.53162222,2.58064516 C7.53162222,2.23778802 7.52136667,1.89448848 7.53516111,1.55214747 C7.54469444,1.3162765 7.44871111,1.20818433 7.22568889,1.20781567 C6.55395,1.20656221 5.88228333,1.20670968 5.21054444,1.20729954 C4.99683889,1.207447 4.88243889,1.29164977 4.88619444,1.53703226 C4.89666667,2.22267281 4.89464444,2.90860829 4.88698889,3.59424885 C4.88460556,3.81050691 4.96513333,3.91439631 5.1779,3.91410138 C5.86162778,3.91292166 6.54535556,3.91122581 7.22908333,3.91528111 C7.46431111,3.91668203 7.54274444,3.80180645 7.53472778,3.5724977 C7.5231,3.24224885 7.53176667,2.91133641 7.53162222,2.58064516 L7.53162222,2.58064516 Z M7.53162222,6.11008295 C7.53162222,5.75454378 7.52346111,5.39878341 7.53458333,5.0436129 C7.54158889,4.8204977 7.4399,4.72656221 7.23738889,4.72597235 C6.55293889,4.72390783 5.86856111,4.72390783 5.18411111,4.72597235 C4.98174444,4.72656221 4.88402778,4.82094009 4.88677222,5.04368664 C4.89529444,5.74237788 4.87868333,6.44158525 4.9023,7.13946544 C4.90576667,7.24247005 5.07137222,7.42282028 5.16670556,7.42621198 C5.86227778,7.45091244 6.55951111,7.45091244 7.25508333,7.42621198 C7.35034444,7.42282028 7.50786111,7.24689401 7.51883889,7.13843318 C7.55336111,6.79882028 7.53155,6.45330876 7.53162222,6.11008295 L7.53162222,6.11008295 Z" id="Fill-1" fill="#9B9B9B"></path>
                        <path d="M13.1470444,11.7928848 C15.7219111,11.7928848 18.29685,11.7925899 20.8717889,11.793106 C21.3541611,11.7931797 21.3637667,11.803871 21.3640556,12.2809954 C21.3643444,12.8951889 21.3538722,13.5096037 21.3686778,14.1234286 C21.3753222,14.3974931 21.26475,14.5076498 21.0113944,14.5031521 C20.9392444,14.5018986 20.8670222,14.503447 20.7948,14.503447 C15.6690444,14.503447 10.5432889,14.5035207 5.41753333,14.5033733 C4.83946667,14.5033733 4.83946667,14.5028571 4.83939444,13.9151336 C4.83939444,13.4360922 4.83571111,12.956977 4.84033333,12.4779355 C4.84647222,11.8338065 4.69545556,11.7895668 5.49445,11.7912627 C7.61215,11.7959078 9.72985,11.7928848 11.84755,11.7928848 L13.1470444,11.7928848" id="Fill-2" fill="#FFFFFF"></path>
                        <path d="M17.9041056,6.08759447 C17.9040333,6.43163134 17.8962333,6.7758894 17.90685,7.11948387 C17.9137111,7.34407373 17.8046556,7.43764055 17.6059,7.43874654 C16.9200056,7.44258065 16.2341111,7.44154839 15.5482167,7.43963134 C15.3241833,7.43904147 15.2354944,7.32519816 15.2391056,7.09102304 C15.24965,6.4155576 15.2497944,5.73957604 15.2391778,5.0641106 C15.2354222,4.82285714 15.3397111,4.72582488 15.5580389,4.72545622 C16.2319444,4.72412903 16.90585,4.72560369 17.5797556,4.72442396 C17.8241556,4.7240553 17.9188389,4.84283871 17.9077889,5.09264516 C17.8931278,5.42370507 17.9041778,5.7559447 17.9041056,6.08759447" id="Fill-3" fill="#FFFFFF"></path>
                        <path d="M1.43736667,13.1611429 C1.43736667,12.8177696 1.44769444,12.4738802 1.43382778,12.131023 C1.42422222,11.8947834 1.51435556,11.7914101 1.74337222,11.7923687 C2.41612222,11.7952442 3.08887222,11.7962028 3.76162222,11.7916313 C4.00840556,11.7899355 4.09767222,11.9017143 4.09348333,12.1520369 C4.08236111,12.8141567 4.08178333,13.4767189 4.09377222,14.138765 C4.09832222,14.3921106 3.99822222,14.5026359 3.75988889,14.5026359 C3.0992,14.5026359 2.43843889,14.4999816 1.77767778,14.5040369 C1.51442778,14.505659 1.41858889,14.3835576 1.43325,14.11753 C1.45072778,13.7996682 1.43736667,13.4800369 1.43736667,13.1611429" id="Fill-4" fill="#FFFFFF"></path>
                        <path d="M15.2428611,9.62123502 C15.2428611,9.27741935 15.2530444,8.93323502 15.2393944,8.58993548 C15.2299333,8.3524424 15.3247611,8.25024885 15.5513944,8.25083871 C16.2369278,8.25275576 16.9224611,8.25120737 17.6080667,8.25201843 C17.8120944,8.25223963 17.9101,8.34256221 17.9072833,8.56693088 C17.8986167,9.25448848 17.8978222,9.94226728 17.9077167,10.6297512 C17.9108944,10.8536037 17.8113,10.9528479 17.6126167,10.9543963 C16.9270833,10.9597788 16.24155,10.9584516 15.5559444,10.9561659 C15.3396389,10.9554286 15.2284167,10.8583226 15.2391778,10.6156682 C15.2539111,10.2848295 15.2428611,9.95281106 15.2428611,9.62123502" id="Fill-5" fill="#FFFFFF"></path>
                        <path d="M8.33516667,9.56814747 C8.33516667,9.24940092 8.34556667,8.93013825 8.33184444,8.61198157 C8.32108333,8.3637235 8.41035,8.24759447 8.65987778,8.24951152 C9.33233889,8.25445161 10.0049444,8.25349309 10.6774056,8.25017512 C10.9047611,8.24906912 10.9940278,8.34661751 10.9900556,8.58514286 C10.9787167,9.25928111 10.9768389,9.93393548 10.9907056,10.6079263 C10.99605,10.8720369 10.88035,10.9587465 10.6486611,10.9582304 C9.98811667,10.956977 9.32757222,10.9574931 8.6671,10.9579355 C8.43057222,10.9580829 8.32,10.8544885 8.33141111,10.5978986 C8.34672222,10.2552627 8.33516667,9.911447 8.33516667,9.56814747" id="Fill-6" fill="#FFFFFF"></path>
                        <path d="M1.43736667,9.57411982 C1.43736667,9.24305991 1.44588889,8.91163134 1.43433333,8.58101382 C1.42682222,8.36873733 1.49723889,8.2519447 1.71441111,8.2519447 C2.41106667,8.2519447 3.10772222,8.25142857 3.80437778,8.25223963 C4.01692778,8.25246083 4.09471111,8.36534562 4.0924,8.57909677 C4.08503333,9.26569585 4.08416667,9.95251613 4.09254444,10.6391152 C4.09536111,10.8659171 3.98464444,10.9538802 3.78899444,10.9550599 C3.1044,10.9593364 2.41980556,10.9580092 1.73513889,10.9563134 C1.50735,10.9557972 1.42400556,10.835318 1.43368333,10.6039447 C1.44798333,10.261235 1.43736667,9.91741935 1.43736667,9.57411982" id="Fill-7" fill="#FFFFFF"></path>
                        <path d="M18.7030278,6.06879263 C18.7030278,5.73729032 18.7131389,5.40534562 18.6995611,5.07435945 C18.6900278,4.84224885 18.7762611,4.72545622 19.0042667,4.72523502 C19.6898,4.72471889 20.3754056,4.72302304 21.0609389,4.72663594 C21.2607778,4.72774194 21.3646333,4.82374194 21.36225,5.04648848 C21.3548111,5.73404608 21.3538722,6.42182488 21.3626111,7.10930876 C21.3657889,7.35388018 21.2480667,7.44007373 21.0340722,7.44036866 C20.3606,7.44125346 19.6870556,7.44095853 19.0135111,7.44036866 C18.7920778,7.4402212 18.6897389,7.33957604 18.6994889,7.10009217 C18.7134278,6.75686636 18.7030278,6.41260829 18.7030278,6.06879263" id="Fill-8" fill="#FFFFFF"></path>
                        <path d="M11.7859444,6.06031336 C11.7860167,5.72873733 11.7950444,5.39679263 11.7829833,5.06558525 C11.7741722,4.82588018 11.8832278,4.72589862 12.1022778,4.72545622 C12.7759667,4.7240553 13.4496556,4.72604608 14.1233444,4.72420276 C14.3694778,4.72346544 14.4536167,4.84261751 14.44885,5.09168664 C14.4362111,5.75469124 14.4359944,6.41821198 14.44885,7.08121659 C14.4538333,7.33603687 14.3564778,7.44221198 14.1157611,7.44147465 C13.4541333,7.43948387 12.7924333,7.43852535 12.1308056,7.44221198 C11.8682778,7.44376037 11.7693333,7.32106912 11.7821167,7.05496774 C11.7980056,6.72412903 11.7859444,6.39196313 11.7859444,6.06031336" id="Fill-9" fill="#FFFFFF"></path>
                        <path d="M9.66759444,7.44088479 C9.33103889,7.44081106 8.99441111,7.44132719 8.65785556,7.44058986 C8.44212778,7.44014747 8.32881111,7.35152074 8.33206111,7.10812903 C8.34123333,6.42101382 8.34022222,5.73360369 8.33242222,5.04641475 C8.32996667,4.8238894 8.43100556,4.72737327 8.63214444,4.72641475 C9.31731667,4.72324424 10.0025611,4.72494009 10.6877333,4.72508756 C10.9181944,4.72508756 10.99345,4.84586175 10.9898389,5.07539171 C10.9793667,5.75026728 10.9774167,6.42551152 10.9903444,7.10023963 C10.9954722,7.36847926 10.8703111,7.44420276 10.6412944,7.44184332 C10.3168,7.43852535 9.99216111,7.44103226 9.66759444,7.44088479" id="Fill-10" fill="#FFFFFF"></path>
                        <path d="M4.08965556,6.07786175 C4.08972778,6.40929032 4.07918333,6.74116129 4.09319444,7.072 C4.10366667,7.32003687 4.01136667,7.44162212 3.76595556,7.44117972 C3.09262778,7.43992627 2.4193,7.44176959 1.74604444,7.43992627 C1.55241667,7.43933641 1.43180556,7.36980645 1.43455,7.13681106 C1.44271111,6.43723502 1.44307222,5.73743779 1.43426111,5.03786175 C1.43137222,4.81054378 1.53782778,4.72626728 1.73672778,4.72575115 C2.42204444,4.72390783 3.10743333,4.72317051 3.79275,4.72648848 C3.9936,4.72752074 4.09875556,4.82418433 4.09225556,5.04685714 C4.08221667,5.39023041 4.08958333,5.73419355 4.08965556,6.07786175" id="Fill-11" fill="#FFFFFF"></path>
                        <path d="M18.7030278,2.54702304 C18.7030278,2.21574194 18.7142222,1.88387097 18.6992722,1.55325346 C18.6884389,1.31509677 18.7877444,1.20870046 19.0091778,1.20818433 C19.6942778,1.20648848 20.3793778,1.20464516 21.0644056,1.21002765 C21.2613556,1.21164977 21.3657889,1.30801843 21.3628278,1.53253456 C21.3537278,2.21957604 21.3548833,2.90683871 21.3623222,3.59388018 C21.3647056,3.81360369 21.2724056,3.91299539 21.0654167,3.91321659 C20.3803889,3.91410138 19.6952889,3.91196313 19.0101889,3.91483871 C18.7825444,3.91579724 18.6893056,3.81574194 18.6993444,3.57758525 C18.7137167,3.23465438 18.7030278,2.89061751 18.7030278,2.54702304" id="Fill-12" fill="#FFFFFF"></path>
                        <path d="M15.2428611,2.55948387 C15.2428611,2.22798157 15.2539833,1.8958894 15.2391056,1.56505069 C15.2285611,1.33264516 15.3158056,1.21047005 15.5406333,1.20921659 C16.2261667,1.20538249 16.9117722,1.20575115 17.5973056,1.20884793 C17.8172944,1.20980645 17.9121944,1.31922581 17.90815,1.5564977 C17.8967389,2.2316682 17.8973889,2.90728111 17.9077167,3.58245161 C17.9114722,3.82451613 17.8089889,3.91520737 17.5874111,3.91461751 C16.9138667,3.91270046 16.2403222,3.91085714 15.5667778,3.91564977 C15.3182611,3.91734562 15.2277667,3.80423963 15.2391056,3.55399078 C15.2541278,3.22315207 15.2427889,2.89105991 15.2428611,2.55948387" id="Fill-13" fill="#FFFFFF"></path>
                        <path d="M10.9860833,2.59015668 C10.9860833,2.92121659 10.9775611,3.25257143 10.9891889,3.58318894 C10.9966278,3.79465438 10.9281611,3.91321659 10.7102667,3.91321659 C10.0136833,3.91336406 9.3171,3.91373272 8.62058889,3.91314286 C8.40782222,3.91299539 8.33011111,3.80070046 8.33242222,3.58680184 C8.33993333,2.9002765 8.34072778,2.21360369 8.33227778,1.52707834 C8.32953333,1.30145622 8.43750556,1.21069124 8.63416667,1.20951152 C9.31868889,1.20523502 10.0032111,1.20648848 10.6877333,1.20825806 C10.9149444,1.20884793 10.9994444,1.32873733 10.9897667,1.56040553 C10.9754667,1.90311521 10.9860833,2.24685714 10.9860833,2.59015668" id="Fill-14" fill="#FFFFFF"></path>
                        <path d="M4.08972778,2.59517051 C4.08972778,2.91399078 4.07947222,3.23332719 4.09305,3.5515576 C4.10359444,3.79870968 4.01613333,3.91741935 3.76602778,3.9157235 C3.09335,3.91100461 2.42067222,3.91196313 1.74806667,3.91505991 C1.52244444,3.9161659 1.42942222,3.82193548 1.43339444,3.58178802 C1.44473333,2.90757604 1.44653889,2.23277419 1.43281667,1.55863594 C1.4274,1.29585253 1.54071667,1.20597235 1.77348889,1.20641475 C2.43410556,1.20759447 3.09472222,1.20693088 3.75533889,1.20678341 C3.98998889,1.20670968 4.10489444,1.30705991 4.09341111,1.56527189 C4.07824444,1.90790783 4.08972778,2.25179724 4.08972778,2.59517051" id="Fill-15" fill="#FFFFFF"></path>
                        <path d="M14.4445167,2.56582488 C14.4445167,2.90949309 14.4355611,3.25352995 14.4476944,3.59675576 C14.4555667,3.81928111 14.3618944,3.91373272 14.1541111,3.91373272 C13.4687944,3.91358525 12.7834778,3.91262673 12.0981611,3.91439631 C11.87225,3.91498618 11.7793722,3.81198157 11.7826222,3.5756682 C11.7920833,2.90064516 11.7930944,2.22532719 11.7821889,1.55045161 C11.7782889,1.30971429 11.8834444,1.20943779 12.09975,1.20862673 C12.7850667,1.20604608 13.4703833,1.20552995 14.1557,1.21010138 C14.3569111,1.21142857 14.4565056,1.31170507 14.4479833,1.53489401 C14.4347667,1.87804608 14.4445167,2.22215668 14.4445167,2.56582488" id="Fill-16" fill="#FFFFFF"></path>
                        <path d="M14.4445167,9.62189862 C14.4445167,9.95325346 14.4331778,10.2852719 14.4482722,10.6158894 C14.4593944,10.8580276 14.35135,10.955871 14.1334556,10.9565346 C13.4602,10.9585253 12.7869444,10.9577143 12.1136167,10.9572719 C11.8754278,10.9571244 11.7766278,10.8459355 11.7816111,10.5918525 C11.7945389,9.92936406 11.7938167,9.26621198 11.7819722,8.60364977 C11.77735,8.34683871 11.8794722,8.2481106 12.1204056,8.24965899 C12.7816,8.25386175 13.4429389,8.25666359 14.1041333,8.2483318 C14.3722222,8.24494009 14.4632222,8.36092166 14.44885,8.62790783 C14.4310111,8.95830415 14.4445889,9.29047005 14.4445167,9.62189862" id="Fill-17" fill="#FFFFFF"></path>
                        <path d="M21.3597222,9.63207373 C21.3597222,9.95104147 21.3478778,10.2706728 21.3634778,10.5889032 C21.3757556,10.8406267 21.2754389,10.9571244 21.0348667,10.9572719 C20.3618278,10.9576406 19.6887889,10.9582304 19.01575,10.9567558 C18.7982167,10.9562396 18.69465,10.8609032 18.6989111,10.61847 C18.7107556,9.94381567 18.7101056,9.26871889 18.6990556,8.59406452 C18.6953,8.36173272 18.7709889,8.24958525 19.0038333,8.25054378 C19.6888611,8.25334562 20.3738889,8.25231336 21.0589889,8.25128111 C21.2924833,8.25091244 21.3702667,8.37360369 21.3626833,8.60151152 C21.3512,8.94466359 21.35965,9.28847926 21.3597222,9.63207373" id="Fill-18" fill="#FFFFFF"></path>
                        <path d="M24.8073222,2.54650691 C24.8073944,2.88973272 24.7986556,3.23325346 24.8104278,3.5761106 C24.8184444,3.80984332 24.7295389,3.91646083 24.4988611,3.91520737 C23.8265444,3.91174194 23.1540833,3.90982488 22.4817667,3.91623963 C22.2300722,3.91859908 22.1519278,3.8039447 22.1564778,3.55590783 C22.1686833,2.89423041 22.1713556,2.2318894 22.1556833,1.57035945 C22.1489667,1.28670968 22.2744889,1.20368664 22.5209833,1.20516129 C23.1573333,1.20884793 23.7937556,1.21091244 24.4300333,1.2040553 C24.6966778,1.20117972 24.8301444,1.29260829 24.8117278,1.59070968 C24.7920833,1.90812903 24.8073222,2.2278341 24.8073222,2.54650691" id="Fill-19" fill="#FFFFFF"></path>
                        <path d="M22.1606667,6.07933641 C22.1606667,5.74798157 22.1725833,5.4161106 22.1567667,5.08556682 C22.1447778,4.83354839 22.2400389,4.72243318 22.4849444,4.7236129 C23.1459944,4.72670968 23.8071167,4.72656221 24.4682389,4.72331797 C24.7040444,4.72213825 24.8159167,4.81282949 24.8113667,5.07347465 C24.79945,5.74820276 24.7995222,6.42337327 24.8112222,7.09810138 C24.8158444,7.36353917 24.6929944,7.44317051 24.4618833,7.44213825 C23.8128222,7.43918894 23.1637611,7.43734562 22.5147,7.44294931 C22.2607667,7.44516129 22.1410222,7.35152074 22.1564056,7.07303226 C22.1746056,6.74278341 22.1606667,6.41061751 22.1606667,6.07933641" id="Fill-20" fill="#FFFFFF"></path>
                        <path d="M22.1606667,9.58569585 C22.1606667,9.25470968 22.1704889,8.92335484 22.1573444,8.59295853 C22.1481,8.36173272 22.2273278,8.24884793 22.4618333,8.25010138 C23.1461389,8.25378802 23.8305167,8.25209217 24.5148222,8.25120737 C24.7248444,8.25091244 24.8125944,8.34934562 24.8101389,8.56840553 C24.8025556,9.25478341 24.8003889,9.94130876 24.8108611,10.6275392 C24.8146167,10.8734378 24.7001444,10.9574194 24.48615,10.9575668 C23.8137611,10.9580092 23.1414444,10.9581567 22.4691278,10.9569032 C22.2481278,10.9565346 22.1468722,10.8541935 22.1570556,10.6151521 C22.1715722,10.2725899 22.1607389,9.92884793 22.1606667,9.58569585" id="Fill-21" fill="#FFFFFF"></path>
                        <path d="M24.8073222,13.12553 C24.80725,13.4687558 24.7973556,13.812424 24.8106444,14.1552074 C24.8198167,14.3897512 24.7249889,14.5013825 24.50175,14.5017512 C23.8173,14.5030783 23.1327778,14.5038157 22.4483278,14.4999078 C22.2448056,14.4987281 22.1543111,14.3952811 22.1573444,14.1749677 C22.1667333,13.4885899 22.1677444,12.8018433 22.1569833,12.1154654 C22.1530833,11.8680184 22.2642333,11.7912627 22.4820556,11.7922212 C23.1545167,11.7951705 23.82705,11.7953917 24.4995111,11.7922212 C24.7301889,11.7911889 24.8188056,11.8991336 24.8104278,12.1325714 C24.7985111,12.4631152 24.8073944,12.79447 24.8073222,13.12553" id="Fill-22" fill="#FFFFFF"></path>
                        <path d="M7.53169444,9.6324424 C7.53169444,9.96423963 7.5231,10.2963318 7.53472778,10.6276866 C7.54238333,10.8460829 7.45225,10.9540276 7.24518889,10.9549862 C6.55915,10.9580829 5.87311111,10.9580829 5.187,10.9556498 C4.98672778,10.9549124 4.88373889,10.8645899 4.88662778,10.6387465 C4.89565556,9.95074654 4.89471667,9.26245161 4.88691667,8.57437788 C4.88453333,8.35893088 4.96101667,8.25091244 5.17623889,8.25128111 C5.86235,8.25246083 6.54846111,8.25275576 7.23457222,8.25076498 C7.44351111,8.25010138 7.54028889,8.34086636 7.53422222,8.56339171 C7.52454444,8.91952074 7.53162222,9.27601843 7.53169444,9.6324424" id="Fill-23" fill="#FFFFFF"></path>
                        <path d="M7.53169444,2.58064516 C7.53176667,2.91133641 7.5231,3.24224885 7.53472778,3.5724977 C7.54274444,3.80180645 7.46431111,3.91668203 7.22908333,3.91528111 C6.54535556,3.91122581 5.86162778,3.91292166 5.1779,3.91410138 C4.96513333,3.91439631 4.88460556,3.81050691 4.88698889,3.59424885 C4.89464444,2.90860829 4.89666667,2.22267281 4.88619444,1.53703226 C4.88243889,1.29164977 4.99683889,1.207447 5.21054444,1.20729954 C5.88228333,1.20670968 6.55395,1.20656221 7.22568889,1.20781567 C7.44871111,1.20818433 7.54469444,1.3162765 7.53516111,1.55214747 C7.52136667,1.89448848 7.53162222,2.23778802 7.53169444,2.58064516" id="Fill-24" fill="#FFFFFF"></path>
                        <path d="M7.53155,6.11008295 C7.53155,6.45330876 7.55336111,6.79882028 7.51883889,7.13843318 C7.50786111,7.24689401 7.35034444,7.42282028 7.25508333,7.42621198 C6.55951111,7.45091244 5.86227778,7.45091244 5.16670556,7.42621198 C5.07137222,7.42282028 4.90576667,7.24247005 4.9023,7.13946544 C4.87868333,6.44158525 4.89529444,5.74237788 4.88677222,5.04368664 C4.88402778,4.82094009 4.98174444,4.72656221 5.18411111,4.72597235 C5.86856111,4.72390783 6.55293889,4.72390783 7.23738889,4.72597235 C7.4399,4.72656221 7.54158889,4.8204977 7.53458333,5.0436129 C7.52346111,5.39878341 7.53162222,5.75454378 7.53155,6.11008295" id="Fill-25" fill="#FFFFFF"></path>
                    </g>
                </g>
            </g>
        </g>
    </g>
</svg>