<?xml version="1.0" encoding="UTF-8" standalone="no"?>
<svg width="33px" height="33px" viewBox="0 0 33 33" version="1.1" xmlns="http://www.w3.org/2000/svg" xmlns:xlink="http://www.w3.org/1999/xlink" xmlns:sketch="http://www.bohemiancoding.com/sketch/ns">
    <!-- Generator: Sketch 3.4.4 (17248) - http://www.bohemiancoding.com/sketch -->
    <title>Imported Layers</title>
    <desc>Created with Sketch.</desc>
    <defs></defs>
    <g id="MENU" stroke="none" stroke-width="1" fill="none" fill-rule="evenodd" sketch:type="MSPage">
        <g id="Main_00_Adjustments_Select" sketch:type="MSArtboardGroup" transform="translate(-364.000000, -58.000000)" fill="#FFFFFF">
            <g id="Group-Copy" sketch:type="MSLayerGroup" transform="translate(0.000000, 32.000000)">
                <g id="Imported-Layers" transform="translate(364.000000, 26.000000)" sketch:type="MSShapeGroup">
                    <path d="M10.2666667,29.7 L16.3533333,29.7 L16.3533333,28.7466667 L10.2666667,28.7466667 L10.2666667,29.7 Z M10.2666667,27.0233333 L22.4033333,27.0233333 L22.4033333,26.07 L10.2666667,26.07 L10.2666667,27.0233333 Z M10.2666667,24.31 L22.4033333,24.31 L22.4033333,23.3566667 L10.2666667,23.3566667 L10.2666667,24.31 Z M28.5633333,11.8066667 L25.7766667,11.8066667 L25.7766667,0 L6.67333333,0 L6.67333333,11.8066667 L3.55666667,11.8066667 C1.57666667,11.8066667 0,13.3833333 0,15.3633333 L0,22.99 C0,24.97 1.57666667,26.5466667 3.55666667,26.5466667 L6.67333333,26.5466667 L6.67333333,33 L25.7766667,33 L25.7766667,26.5466667 L28.5633333,26.5466667 C30.5433333,26.5466667 32.12,24.97 32.12,22.99 L32.12,15.3633333 C32.1933333,13.3833333 30.5433333,11.8066667 28.5633333,11.8066667 L28.5633333,11.8066667 Z M7.92,21.1933333 L24.4933333,21.1933333 L24.4933333,31.7166667 L7.92,31.7166667 L7.92,21.1933333 Z M28.2666667,17 C27.7146667,17 27.2666667,16.552 27.2666667,16 C27.2666667,15.4474286 27.7146667,15 28.2666667,15 C28.8192381,15 29.2666667,15.4474286 29.2666667,16 C29.2666667,16.552 28.8192381,17 28.2666667,17 L28.2666667,17 Z"></path>
                </g>
            </g>
        </g>
    </g>
</svg>