<?xml version="1.0" encoding="UTF-8" standalone="no"?>
<svg width="120px" height="175px" viewBox="0 0 120 175" version="1.1" xmlns="http://www.w3.org/2000/svg" xmlns:xlink="http://www.w3.org/1999/xlink" xmlns:sketch="http://www.bohemiancoding.com/sketch/ns">
    <!-- Generator: Sketch 3.4.4 (17248) - http://www.bohemiancoding.com/sketch -->
    <title>Group</title>
    <desc>Created with Sketch.</desc>
    <defs></defs>
    <g id="CONFIRMATION" stroke="none" stroke-width="1" fill="none" fill-rule="evenodd" sketch:type="MSPage">
        <g id="Confirmation_screen_option_03-Copy-2" sketch:type="MSArtboardGroup" transform="translate(-179.000000, -226.000000)" fill="#0A4479">
            <g id="Group" sketch:type="MSLayerGroup" transform="translate(179.000000, 226.000000)">
                <path d="M112.592482,34.5352465 L103.758584,168.259479 C103.615861,170.428109 101.904321,172.095496 99.8599646,172.095496 L20.4815709,172.095496 C18.4372148,172.095496 16.7256749,170.428109 16.5829673,168.259725 L7.74905346,34.5352465 C7.71264857,33.9841629 7.23639506,33.5669334 6.68531146,33.6033383 C6.13422787,33.6397432 5.71699834,34.1159967 5.75340323,34.6670803 L14.5873009,168.391313 C14.7980713,171.593886 17.3659252,174.095496 20.4815709,174.095496 L99.8599646,174.095496 C102.97561,174.095496 105.543464,171.593886 105.754251,168.391066 L114.588132,34.6670803 C114.624537,34.1159967 114.207308,33.6397432 113.656224,33.6033383 C113.10514,33.5669334 112.628887,33.9841629 112.592482,34.5352465 L112.592482,34.5352465 Z M114.947845,25.6772376 C114.942818,25.6051863 114.932967,25.4727991 114.918284,25.2886398 C114.893928,24.9831604 114.864731,24.6431267 114.830681,24.2770697 C114.733294,23.2301171 114.616376,22.1826736 114.479514,21.2017826 C114.305641,19.9556333 114.111904,18.906213 113.893377,18.1049817 C113.134323,15.3219099 109.846853,14.076002 105.663638,14.076002 L88.7494823,14.076002 C86.3383633,14.076002 84.0738563,10.6016236 84.0738563,6.33541535 C84.0738563,3.70095866 82.5295002,1.94218261 79.9402481,0.997131399 C78.1630868,0.348485262 76.0797547,0.113403543 73.6518268,0.113403543 L60.8242854,0.113403543 L60.0287579,0.113403543 L47.2015571,0.113403543 C44.7736291,0.113403543 42.690297,0.348485262 40.9131358,0.997131399 C38.3238837,1.94218261 36.7795276,3.70095866 36.7795276,6.33541535 C36.7795276,10.6015207 34.5147674,14.076002 32.103561,14.076002 L15.1897461,14.076002 C11.0064203,14.076002 7.71871784,15.3219195 6.95966638,18.1049817 C6.74113882,18.906213 6.54740266,19.9556333 6.37352946,21.2017826 C6.23666731,22.1826736 6.11974883,23.2301171 6.02236241,24.2770697 C5.98831218,24.6431267 5.95911566,24.9831604 5.93475963,25.2886398 C5.92007651,25.4727991 5.9102249,25.6051863 5.9051983,25.6772376 C5.86676202,26.2281833 6.28223294,26.7059717 6.83317858,26.744408 C7.38412422,26.7828443 7.86191267,26.3673734 7.90034895,25.8164277 C7.90492988,25.7507647 7.91429333,25.6249374 7.92843282,25.4475964 C7.95211446,25.1505754 7.98056313,24.8192514 8.01376564,24.4623079 C8.1085299,23.4435447 8.22219222,22.4252724 8.35434101,21.478162 C8.51745856,20.3090985 8.69738369,19.3344891 8.88918795,18.6312388 C9.32844305,17.0207099 11.8213197,16.076002 15.1897461,16.076002 L32.103561,16.076002 C35.8436584,16.076002 38.7795276,11.5719391 38.7795276,6.33541535 C38.7795276,3.28611223 41.9925158,2.11340354 47.2015571,2.11340354 L60.0287579,2.11340354 L60.8242854,2.11340354 L73.6518268,2.11340354 C78.8608681,2.11340354 82.0738563,3.28611223 82.0738563,6.33541535 C82.0738563,11.5720295 85.0094252,16.076002 88.7494823,16.076002 L105.663638,16.076002 C109.031966,16.076002 111.52459,17.020674 111.963855,18.6312388 C112.15566,19.3344891 112.335585,20.3090985 112.498702,21.478162 C112.630851,22.4252724 112.744513,23.4435447 112.839278,24.4623079 C112.87248,24.8192514 112.900929,25.1505754 112.92461,25.4475964 C112.93875,25.6249374 112.948113,25.7507647 112.952694,25.8164277 C112.991131,26.3673734 113.468919,26.7828443 114.019865,26.744408 C114.57081,26.7059717 114.986281,26.2281833 114.947845,25.6772376 L114.947845,25.6772376 Z M36.9867672,6.28060682 C36.9443659,6.33325037 36.8087573,6.4700806 36.5666398,6.66556025 C36.1297998,7.01825397 35.5596467,7.37795045 34.8417743,7.71900443 C33.534329,8.34015854 31.9067742,8.81858114 29.9242358,9.090772 C28.9263443,9.22771794 27.8622814,9.31262614 25.754536,9.44260372 C23.7974665,9.56328962 23.5828947,9.57702518 22.77693,9.63791209 C15.2538434,10.2062465 11.5520682,11.5132453 11.4683081,15.2802387 C11.456031,15.832387 11.893683,16.2899442 12.4458313,16.3022214 C12.9979795,16.3144986 13.4555367,15.8768465 13.4678139,15.3246983 C13.5154641,13.1816991 16.5365165,12.1150455 22.9275914,11.6322293 C23.7201268,11.5723569 23.9326583,11.558752 25.8776354,11.4388118 C28.036086,11.3057074 29.1317011,11.2182814 30.1962149,11.0721925 C32.3793733,10.7724577 34.2047466,10.235886 35.7000205,9.52549647 C37.1926201,8.8163774 38.1070873,8.07805942 38.5443627,7.53515696 C38.8907972,7.10503882 38.8229582,6.47551856 38.39284,6.1290841 C37.9627219,5.78264965 37.3332016,5.85048868 36.9867672,6.28060682 L36.9867672,6.28060682 Z M82.3951261,7.53508932 C82.8323444,8.07801733 83.7467387,8.81635608 85.239283,9.52548742 C86.7344872,10.2358825 88.5598237,10.7724569 90.7429307,11.0721847 C91.8075017,11.2182814 92.9031168,11.3057074 95.0615673,11.4388118 C97.0065444,11.558752 97.219076,11.5723569 98.0116113,11.6322293 C104.402686,12.1150455 107.423739,13.1816991 107.471389,15.3246983 C107.483666,15.8768465 107.941223,16.3144986 108.493372,16.3022214 C109.04552,16.2899442 109.483172,15.832387 109.470895,15.2802387 C109.387135,11.5132453 105.685359,10.2062465 98.1622728,9.63791209 C97.356308,9.57702518 97.1417362,9.56328962 95.1846668,9.44260372 C93.0769214,9.31262614 92.0128585,9.22771794 91.0149098,9.09076415 C89.0324344,8.81858194 87.4049297,8.340162 86.0975672,7.71901347 C85.3797462,7.37796539 84.8096513,7.01827702 84.3728709,6.66559337 C84.1307922,6.47012395 83.9952141,6.3333054 83.9528306,6.28067446 C83.6064335,5.85052623 82.9769191,5.78263253 82.5467709,6.12902964 C82.1166227,6.47542674 82.048729,7.1049411 82.3951261,7.53508932 L82.3951261,7.53508932 Z M97.3543307,10.5167028 L97.3543307,7.64074803 L96.3543307,8.64074803 L101.916553,8.64074803 L100.916553,7.64074803 L100.916553,10.8191122 C100.916553,11.371397 101.364268,11.8191122 101.916553,11.8191122 C102.468838,11.8191122 102.916553,11.371397 102.916553,10.8191122 L102.916553,7.64074803 C102.916553,7.08846328 102.468838,6.64074803 101.916553,6.64074803 L96.3543307,6.64074803 C95.802046,6.64074803 95.3543307,7.08846328 95.3543307,7.64074803 L95.3543307,10.5167028 C95.3543307,11.0689875 95.802046,11.5167028 96.3543307,11.5167028 C96.9066155,11.5167028 97.3543307,11.0689875 97.3543307,10.5167028 L97.3543307,10.5167028 Z M25.0951594,10.5167028 L25.0951594,7.64074803 C25.0951594,7.08846328 24.6474442,6.64074803 24.0951594,6.64074803 L18.5325965,6.64074803 C17.9803117,6.64074803 17.5325965,7.08846328 17.5325965,7.64074803 L17.5325965,10.8191122 C17.5325965,11.371397 17.9803117,11.8191122 18.5325965,11.8191122 C19.0848812,11.8191122 19.5325965,11.371397 19.5325965,10.8191122 L19.5325965,7.64074803 L18.5325965,8.64074803 L24.0951594,8.64074803 L23.0951594,7.64074803 L23.0951594,10.5167028 C23.0951594,11.0689875 23.5428747,11.5167028 24.0951594,11.5167028 C24.6474442,11.5167028 25.0951594,11.0689875 25.0951594,10.5167028 L25.0951594,10.5167028 Z" id="Shape" sketch:type="MSShapeGroup"></path>
                <path d="M61,128 C76.463973,128 89,115.463973 89,100 C89,84.536027 76.463973,72 61,72 C45.536027,72 33,84.536027 33,100 C33,115.463973 45.536027,128 61,128 Z M47.8374654,105.682584 L53.582027,110.953074 C53.9825529,111.320546 54.6032608,111.300792 54.9796097,110.908595 L74.5863994,90.4761622 C74.9687895,90.0776697 74.9557358,89.4446393 74.5572433,89.0622493 C74.1587508,88.6798592 73.5257204,88.6929128 73.1433303,89.0914053 L53.5365406,109.523838 L54.9341232,109.479359 L49.1895616,104.208869 C48.7826064,103.835498 48.1500271,103.862723 47.776656,104.269678 C47.403285,104.676634 47.4305103,105.309213 47.8374654,105.682584 Z" id="Oval-1-Copy" sketch:type="MSShapeGroup"></path>
                <path d="M116.219703,33.6011634 L3.83781299,33.6011634 C2.88554262,33.6011634 2.11340354,32.8290243 2.11340354,31.8767539 L2.11340354,28.4712421 C2.11340354,27.5187682 2.88540567,26.7468327 3.83781299,26.7468327 L116.219703,26.7468327 C117.172314,26.7468327 117.944112,27.5186312 117.944112,28.4712421 L117.944112,31.8767539 C117.944112,32.8291613 117.172177,33.6011634 116.219703,33.6011634 L116.219703,33.6011634 Z M116.219703,35.6011634 C118.276785,35.6011634 119.944112,33.9336921 119.944112,31.8767539 L119.944112,28.4712421 C119.944112,26.4140617 118.276883,24.7468327 116.219703,24.7468327 L3.83781299,24.7468327 C1.78087483,24.7468327 0.113403543,26.41416 0.113403543,28.4712421 L0.113403543,31.8767539 C0.113403543,33.9335938 1.78097312,35.6011634 3.83781299,35.6011634 L116.219703,35.6011634 L116.219703,35.6011634 Z" id="Shape" sketch:type="MSShapeGroup"></path>
                <path d="M110,147.999275 L110,147.999275 L110,170.000725 C110,171.105879 110.897046,172 112.009763,172 L113.990237,172 C115.105663,172 116,171.106858 116,170.000725 L116,147.999275 C116,146.894121 115.102954,146 113.990237,146 L112.009763,146 C110.894337,146 110,146.893142 110,147.999275 L110,147.999275 Z M108,147.999275 C108,145.790536 109.7878,144 112.009763,144 L113.990237,144 C116.204768,144 118,145.786795 118,147.999275 L118,170.000725 C118,172.209464 116.2122,174 113.990237,174 L112.009763,174 C109.795232,174 108,172.213205 108,170.000725 L108,147.999275 L108,147.999275 Z" id="Shape" sketch:type="MSShapeGroup"></path>
                <path d="M4,147.999275 L4,147.999275 L4,170.000725 C4,171.105879 4.89704566,172 6.009763,172 L7.990237,172 C9.10566251,172 10,171.106858 10,170.000725 L10,147.999275 C10,146.894121 9.10295434,146 7.990237,146 L6.009763,146 C4.89433749,146 4,146.893142 4,147.999275 L4,147.999275 Z M2,147.999275 C2,145.790536 3.7877996,144 6.009763,144 L7.990237,144 C10.204768,144 12,145.786795 12,147.999275 L12,170.000725 C12,172.209464 10.2122004,174 7.990237,174 L6.009763,174 C3.79523205,174 2,172.213205 2,170.000725 L2,147.999275 L2,147.999275 Z" id="Shape" sketch:type="MSShapeGroup"></path>
            </g>
        </g>
    </g>
</svg>