<?xml version="1.0" encoding="UTF-8" standalone="no"?>
<svg width="77px" height="50px" viewBox="0 0 77 50" version="1.1" xmlns="http://www.w3.org/2000/svg" xmlns:xlink="http://www.w3.org/1999/xlink" xmlns:sketch="http://www.bohemiancoding.com/sketch/ns">
    <!-- Generator: Sketch 3.4.4 (17248) - http://www.bohemiancoding.com/sketch -->
    <title>Group</title>
    <desc>Created with Sketch.</desc>
    <defs></defs>
    <g id="RTM" stroke="none" stroke-width="1" fill="none" fill-rule="evenodd" sketch:type="MSPage">
        <g id="RTM_Scan_ViewSummary" sketch:type="MSArtboardGroup" transform="translate(-204.000000, -188.000000)" fill="#979797">
            <g id="Group" sketch:type="MSLayerGroup" transform="translate(204.000000, 188.000000)">
                <path d="M10,0.5 L10,49.5 L10,50 L11,50 L11,49.5 L11,0.5 L11,0 L10,0 L10,0.5 L10,0.5 Z" id="Shape" sketch:type="MSShapeGroup"></path>
                <path d="M12,0.5 L12,49.5 L12,50 L13,50 L13,49.5 L13,0.5 L13,0 L12,0 L12,0.5 L12,0.5 Z" id="Shape" sketch:type="MSShapeGroup"></path>
                <path d="M15,0.5 L15,49.5 L15,50 L16,50 L16,49.5 L16,0.5 L16,0 L15,0 L15,0.5 L15,0.5 Z" id="Shape" sketch:type="MSShapeGroup"></path>
                <path d="M0,0.5 L0,49.5 L0,50 L1,50 L1,49.5 L1,0.5 L1,0 L0,0 L0,0.5 L0,0.5 Z" id="Shape" sketch:type="MSShapeGroup"></path>
                <path d="M57,0.5 L57,49.5 L57,50 L58,50 L58,49.5 L58,0.5 L58,0 L57,0 L57,0.5 L57,0.5 Z" id="Shape" sketch:type="MSShapeGroup"></path>
                <path d="M62,0.5 L62,49.5 L62,50 L63,50 L63,49.5 L63,0.5 L63,0 L62,0 L62,0.5 L62,0.5 Z" id="Shape" sketch:type="MSShapeGroup"></path>
                <path d="M74,0.5 L74,49.5 L74,50 L75,50 L75,49.5 L75,0.5 L75,0 L74,0 L74,0.5 L74,0.5 Z" id="Shape" sketch:type="MSShapeGroup"></path>
                <path d="M76,0.5 L76,49.5 L76,50 L77,50 L77,49.5 L77,0.5 L77,0 L76,0 L76,0.5 L76,0.5 Z" id="Shape" sketch:type="MSShapeGroup"></path>
                <path d="M64,0.5 L64,49.5 L64,50 L65,50 L65,49.5 L65,0.5 L65,0 L64,0 L64,0.5 L64,0.5 Z" id="Shape" sketch:type="MSShapeGroup"></path>
                <path d="M25,0.5 L25,49.5 L25,50 L26,50 L26,49.5 L26,0.5 L26,0 L25,0 L25,0.5 L25,0.5 Z" id="Shape" sketch:type="MSShapeGroup"></path>
                <path d="M42,0.5 L42,49.5 L42,50 L43,50 L43,49.5 L43,0.5 L43,0 L42,0 L42,0.5 L42,0.5 Z" id="Shape" sketch:type="MSShapeGroup"></path>
                <path d="M47,0.5 L47,49.5 L47,50 L48,50 L48,49.5 L48,0.5 L48,0 L47,0 L47,0.5 L47,0.5 Z" id="Shape" sketch:type="MSShapeGroup"></path>
                <path d="M45,0.5 L45,49.5 L45,50 L46,50 L46,49.5 L46,0.5 L46,0 L45,0 L45,0.5 L45,0.5 Z" id="Shape" sketch:type="MSShapeGroup"></path>
                <path d="M17,0 L17,50 L23,50 L23,0 L17,0 L17,0 Z" id="Shape" sketch:type="MSShapeGroup"></path>
                <path d="M2,0 L2,50 L8,50 L8,0 L2,0 L2,0 Z" id="Shape" sketch:type="MSShapeGroup"></path>
                <path d="M28,0 L28,50 L34,50 L34,0 L28,0 L28,0 Z" id="Shape" sketch:type="MSShapeGroup"></path>
                <path d="M35,0 L35,50 L41,50 L41,0 L35,0 L35,0 Z" id="Shape" sketch:type="MSShapeGroup"></path>
                <path d="M50,0 L50,50 L56,50 L56,0 L50,0 L50,0 Z" id="Shape" sketch:type="MSShapeGroup"></path>
                <path d="M67,0 L67,50 L73,50 L73,0 L67,0 L67,0 Z" id="Shape" sketch:type="MSShapeGroup"></path>
            </g>
        </g>
    </g>
</svg>