<?xml version="1.0" encoding="UTF-8" standalone="no"?>
<svg width="33px" height="33px" viewBox="0 0 33 33" version="1.1" xmlns="http://www.w3.org/2000/svg" xmlns:xlink="http://www.w3.org/1999/xlink" xmlns:sketch="http://www.bohemiancoding.com/sketch/ns">
    <!-- Generator: Sketch 3.4.4 (17248) - http://www.bohemiancoding.com/sketch -->
    <title>Settings</title>
    <desc>Created with Sketch.</desc>
    <defs></defs>
    <g id="MENU" stroke="none" stroke-width="1" fill="none" fill-rule="evenodd" sketch:type="MSPage">
        <g id="Main_00_Adjustments_Select" sketch:type="MSArtboardGroup" transform="translate(-435.000000, -58.000000)" fill="#FFFFFF">
            <g id="Group-Copy" sketch:type="MSLayerGroup" transform="translate(0.000000, 32.000000)">
                <g id="Settings" transform="translate(435.000000, 26.000000)" sketch:type="MSShapeGroup">
                    <path d="M20.01428,7.91824 L13.32584,7.91824 L14.41044,0.14476 L18.92968,0.14476 L20.01428,7.91824" id="Fill-1"></path>
                    <path d="M13.32584,24.96252 L20.01428,24.96252 L18.92968,32.736 L14.41044,32.736 L13.32584,24.96252" id="Fill-2"></path>
                    <path d="M16.67028,4.91172 C10.27532,4.91172 5.09124,10.0958 5.09124,16.49032 C5.09124,22.88528 10.27532,28.06936 16.67028,28.06936 C23.06524,28.06936 28.24888,22.88528 28.24888,16.49032 C28.24888,10.0958 23.06524,4.91172 16.67028,4.91172 L16.67028,4.91172 Z M16.67028,22.02904 C13.6114,22.02904 11.13156,19.54964 11.13156,16.49032 C11.13156,13.43144 13.6114,10.95204 16.67028,10.95204 C19.72916,10.95204 22.20856,13.43144 22.20856,16.49032 C22.20856,19.54964 19.72916,22.02904 16.67028,22.02904 L16.67028,22.02904 Z" id="Fill-3"></path>
                    <path d="M8.09776,13.69808 L8.09776,20.38652 L0.32428,19.30192 L0.32428,14.78268 L8.09776,13.69808" id="Fill-4"></path>
                    <path d="M25.11124,20.38652 L25.11124,13.69808 L32.88472,14.78268 L32.88472,19.30192 L25.11124,20.38652" id="Fill-5"></path>
                    <path d="M25.11124,13.0878 L20.38168,8.35824 L26.64508,3.62868 L29.8408,6.82396 L25.11124,13.0878" id="Fill-6"></path>
                    <path d="M8.34108,20.23296 L13.07064,24.96252 L6.8068,29.69208 L3.61152,26.49636 L8.34108,20.23296" id="Fill-7"></path>
                    <path d="M20.38168,24.52252 L25.11124,19.79296 L29.8408,26.05636 L26.64508,29.25208 L20.38168,24.52252" id="Fill-8"></path>
                    <path d="M12.72524,8.72696 L7.99568,13.45652 L3.26612,7.19312 L6.4614,3.9974 L12.72524,8.72696" id="Fill-9"></path>
                </g>
            </g>
        </g>
    </g>
</svg>