<?xml version="1.0" encoding="UTF-8" standalone="no"?>
<svg width="101px" height="96px" viewBox="0 0 101 96" version="1.1" xmlns="http://www.w3.org/2000/svg" xmlns:xlink="http://www.w3.org/1999/xlink" xmlns:sketch="http://www.bohemiancoding.com/sketch/ns">
    <!-- Generator: Sketch 3.4.4 (17248) - http://www.bohemiancoding.com/sketch -->
    <title>Oval 2 Copy 3 + Fill 1 Copy + Fill 2 Copy</title>
    <desc>Created with Sketch.</desc>
    <defs></defs>
    <g id="Error-Prompts" stroke="none" stroke-width="1" fill="none" fill-rule="evenodd" sketch:type="MSPage">
        <g id="All_Server_Failure" sketch:type="MSArtboardGroup" transform="translate(-188.000000, -273.000000)">
            <g id="Oval-2-Copy-3-+-Fill-1-Copy-+-Fill-2-Copy" sketch:type="MSLayerGroup" transform="translate(189.000000, 274.000000)">
                <path d="M72.0611632,33.7220069 L53.9658222,48.4435231 L49.4658222,40.6492945 L71.2995867,32.3249642 C71.1986403,31.9960447 71.1387927,31.6485785 71.1262121,31.2883176 C71.0491142,29.0805244 72.7763842,27.2282542 74.9841774,27.1511563 C77.1919707,27.0740585 79.0442409,28.8013284 79.1213387,31.0091217 C79.1984365,33.2169149 77.4711666,35.0691851 75.2633734,35.146283 C73.9848429,35.1909302 72.825539,34.6304729 72.0611632,33.7220069 Z M24.891429,0.447110845 C1.56386189,14.4581297 -6.31061228,44.6414957 7.34936491,68.3012702 C21.0093848,91.9611187 51.086329,100.233285 74.8840459,87.0363529 C75.2863846,86.7333604 75.4044026,86.1760532 75.1476558,85.7313547 L26.1536144,0.871185665 C25.8948781,0.423041307 25.351996,0.251572952 24.891429,0.447110845 Z" id="Oval-2-Copy-3" stroke="#0A4479" stroke-width="2" sketch:type="MSShapeGroup"></path>
                <path d="M84.6590352,9.32827605 C84.2970291,9.06116522 84.0273675,8.75675516 84.0622672,8.27936089 C84.1114987,7.60766151 84.8567509,6.97158172 85.6395724,7.57475807 C86.491066,8.23087269 87.3510122,8.87989408 88.1620067,9.58512788 C91.8420038,12.7851576 94.6790227,16.6294187 96.6796631,21.0808013 C98.6256964,25.4106223 99.6072212,29.9537027 99.6148177,34.6942534 C99.6153584,35.0475494 99.5809776,35.3904645 99.2925991,35.6302829 C98.9860442,35.8850902 98.6352668,35.9907529 98.2469405,35.8167768 C97.8378665,35.6335573 97.6627321,35.2907358 97.6358424,34.8584476 C97.5553194,33.5681649 97.5326978,32.2719102 97.3851352,30.9888502 C96.961832,27.3078172 95.8621368,23.8206445 93.4858418,19.1605001 C91.8838453,16.0301946 88.6998121,12.3088744 84.6590352,9.32827605 Z" id="Fill-1-Copy" fill="#0A4479" sketch:type="MSShapeGroup"></path>
                <path d="M86.6099666,25.3805825 C88.1734886,28.3862147 89.0299454,31.5923574 89.3733482,34.9421085 C89.4058352,35.2597766 89.417163,35.5835817 89.3956359,35.9010614 C89.3626396,36.3887865 89.0386095,36.6986295 88.5679647,36.7426084 C88.1072563,36.7857041 87.6393926,36.4784099 87.5107058,36.0414865 C87.4819782,35.9437366 87.4662921,35.839806 87.4605823,35.738068 C87.2738275,32.3728991 86.4075238,29.1840032 84.8762255,26.1783613 C83.33328,23.1498605 81.2195976,20.5804363 78.5933358,18.4367405 C78.1631713,18.0856237 78.0660546,17.5367912 78.3640018,17.0930199 C78.6585934,16.6540544 79.1869751,16.5111502 79.6456668,16.8454096 C80.2160578,17.260995 80.7596811,17.7256692 81.2619255,18.2233469 C83.9795142,20.9165032 85.1760957,22.6740715 86.6099666,25.3805825" id="Fill-2-Copy" fill="#0A4479" sketch:type="MSShapeGroup"></path>
            </g>
        </g>
    </g>
</svg>