<?xml version="1.0" encoding="UTF-8" standalone="no"?>
<svg width="107px" height="97px" viewBox="0 0 107 97" version="1.1" xmlns="http://www.w3.org/2000/svg" xmlns:xlink="http://www.w3.org/1999/xlink" xmlns:sketch="http://www.bohemiancoding.com/sketch/ns">
    <!-- Generator: Sketch 3.4.4 (17248) - http://www.bohemiancoding.com/sketch -->
    <title>Shape + ! copy 3</title>
    <desc>Created with Sketch.</desc>
    <defs></defs>
    <g id="Error-Prompts" stroke="none" stroke-width="1" fill="none" fill-rule="evenodd" sketch:type="MSPage">
        <g id="Generic_Error" sketch:type="MSArtboardGroup" transform="translate(-187.000000, -271.000000)" fill="#0A4479">
            <g id="Shape-+-!-copy-3" sketch:type="MSLayerGroup" transform="translate(186.000000, 271.000000)">
                <path d="M53.3926606,1.48361402 L105.660603,96.0821031 L106.535884,94.5984891 L2,94.5984891 L2.87528137,96.0821031 L55.1432233,1.48361402 L53.3926606,1.48361402 L53.3926606,1.48361402 Z M55.1432233,0.516385977 C54.7628024,-0.172128659 53.7730815,-0.172128659 53.3926606,0.516385977 L1.12471863,95.1148751 C0.756466565,95.7813656 1.23854138,96.5984891 2,96.5984891 L106.535884,96.5984891 C107.297343,96.5984891 107.779417,95.7813656 107.411165,95.1148751 L55.1432233,0.516385977 L55.1432233,0.516385977 Z" id="Shape" sketch:type="MSShapeGroup"></path>
                <path d="M58.1,69.76 L52.34,69.76 L52.34,39.52 L58.1,39.52 L58.1,69.76 Z M51.38,78.4 C51.38,77.3199946 51.7699961,76.3900039 52.55,75.61 C53.3300039,74.8299961 54.2599946,74.44 55.34,74.44 C56.4200054,74.44 57.3499961,74.8299961 58.13,75.61 C58.9100039,76.3900039 59.3,77.3199946 59.3,78.4 C59.3,79.4800054 58.9100039,80.4099961 58.13,81.19 C57.3499961,81.9700039 56.4200054,82.36 55.34,82.36 C54.2599946,82.36 53.3300039,81.9700039 52.55,81.19 C51.7699961,80.4099961 51.38,79.4800054 51.38,78.4 L51.38,78.4 Z" id="!-copy-3" sketch:type="MSShapeGroup"></path>
            </g>
        </g>
    </g>
</svg>