<?xml version="1.0" encoding="UTF-8" standalone="no"?>
<svg width="358px" height="214px" viewBox="0 0 358 214" version="1.1" xmlns="http://www.w3.org/2000/svg" xmlns:xlink="http://www.w3.org/1999/xlink" xmlns:sketch="http://www.bohemiancoding.com/sketch/ns">
    <!-- Generator: Sketch 3.4.4 (17248) - http://www.bohemiancoding.com/sketch -->
    <title>Imported Layers</title>
    <desc>Created with Sketch.</desc>
    <defs></defs>
    <g id="LAUNCH-SCREEN" stroke="none" stroke-width="1" fill="none" fill-rule="evenodd" sketch:type="MSPage">
        <g id="Loading" sketch:type="MSArtboardGroup" transform="translate(-61.000000, -318.000000)" fill="#FFFFFF">
            <g id="Imported-Layers" sketch:type="MSLayerGroup" transform="translate(61.000000, 318.000000)">
                <path d="M356.9855,29.9842051 L346.095,33.9185641 C341.771,20.2315897 329.57525,11.4151795 313.044,11.4151795 C295.0235,11.4151795 283.19575,20.4153846 283.19575,35.6071795 C283.19575,68.2422564 357.92275,50.9827692 357.92275,96.9314872 C357.92275,118.877744 340.27025,134.253333 313.99275,134.253333 C289.584,134.253333 274.9445,122.628308 264.80725,104.059282 L274.9445,97.8734359 C281.695,112.123282 294.0805,123.191179 312.86575,123.191179 C334.641,123.191179 345.911,113.254769 345.911,96.7476923 C345.911,63.9230769 271.17825,80.0568205 271.17825,35.417641 C271.17825,8.97415385 295.0235,0.347282051 312.676,0.347282051 C332.571,0.347282051 350.603,9.34748718 356.9855,29.9842051 L356.9855,29.9842051 Z M173.1695,30.3575385 C173.1695,37.6691282 178.05125,43.8607179 188.75775,55.3019487 C201.333,47.9846154 208.28475,40.2939487 208.28475,30.3575385 C208.28475,20.6049231 201.70675,12.9142564 190.44825,12.9142564 C179.9315,12.9142564 173.1695,21.1677949 173.1695,30.3575385 L173.1695,30.3575385 Z M185.74475,69.1784615 C168.66725,78.5577436 161.15775,86.0588718 161.15775,97.6838974 C161.15775,110.997538 173.1695,122.065436 188.568,122.065436 C202.4715,122.065436 209.59575,115.690051 217.28925,103.312615 L185.74475,69.1784615 L185.74475,69.1784615 Z M246.57975,134.816205 L224.79875,111.56041 C216.92125,123.94359 206.209,132.943795 188.568,132.943795 C165.8555,132.943795 149.1345,117.189128 149.1345,97.8734359 C149.1345,81.7454359 159.0935,71.8032821 178.2525,60.9249231 C167.35625,50.0523077 161.34175,41.046359 161.34175,30.3575385 C161.34175,14.7924103 174.48625,2.41497436 190.44825,2.41497436 C207.3475,2.41497436 219.92275,14.7924103 219.92275,30.3575385 C219.92275,45.3597949 208.095,55.4857436 196.26725,63.1764103 L223.30375,92.6237949 L239.26575,66.7431795 L248.8395,72.7394872 L231.187,101.434462 L255.41175,127.131282 L246.57975,134.816205 L246.57975,134.816205 Z M119.10225,2.04164103 L119.10225,132.943795 L107.08475,132.943795 L107.08475,26.0441026 L63.908,109.688 L55.44975,109.688 L12.26725,26.2278974 L12.26725,132.943795 L0.2555,132.943795 L0.2555,2.04164103 L12.8365,2.04164103 L59.768,92.4342564 L106.70525,2.04164103 L119.10225,2.04164103 L119.10225,2.04164103 Z" id="Fill-1" sketch:type="MSShapeGroup"></path>
                <path d="M86.31,201.189128 L99.08075,201.189128 L99.08075,197.765949 L86.31,197.765949 L86.31,189.317128 L100.00075,189.317128 L100.00075,185.893949 L82.73925,185.893949 L82.73925,213.279385 L100.777,213.279385 L100.777,209.856205 L86.31,209.856205 L86.31,201.189128" id="Fill-2" sketch:type="MSShapeGroup"></path>
                <path d="M119.154,197.685538 L118.99875,197.633846 C115.1175,196.525333 112.921,195.772923 112.921,193.188308 C112.921,190.655385 115.06575,189.024205 118.3835,189.024205 C121.1435,189.024205 123.18475,190.155692 124.1335,192.211897 L124.51875,193.044718 L127.43975,191.338872 L127.16375,190.672615 C125.226,186.003077 120.0625,185.635487 118.5215,185.635487 C115.152,185.635487 109.45375,187.237949 109.45375,193.228513 C109.45375,198.483897 114.1515,199.862359 118.29725,201.08 C122.37975,202.274667 124.6855,203.078769 124.6855,205.761026 C124.6855,208.581128 122.259,210.40759 118.49275,210.40759 C115.037,210.40759 112.507,208.908513 111.14425,206.065436 L110.759,205.244103 L107.76325,207.018872 L108.10825,207.708103 C110.0345,211.630974 113.67425,213.790564 118.3835,213.790564 C124.1105,213.790564 128.1125,210.430564 128.1125,205.611692 C128.1125,200.241436 123.156,198.828513 119.154,197.685538" id="Fill-3" sketch:type="MSShapeGroup"></path>
                <path d="M134.36275,189.317128 L142.71175,189.317128 L142.71175,213.279385 L146.28825,213.279385 L146.28825,189.317128 L154.643,189.317128 L154.643,185.893949 L134.36275,185.893949 L134.36275,189.317128" id="Fill-4" sketch:type="MSShapeGroup"></path>
                <path d="M163.96375,209.011897 C162.69875,209.011897 161.62925,210.062974 161.62925,211.309333 C161.62925,212.572923 162.69875,213.646974 163.96375,213.646974 C165.2345,213.646974 166.304,212.572923 166.304,211.309333 C166.304,210.062974 165.2345,209.011897 163.96375,209.011897" id="Fill-5" sketch:type="MSShapeGroup"></path>
                <path d="M184.45675,190.414154 L188.5565,190.414154 L188.5565,213.273641 L192.09275,213.273641 L192.13875,186.990974 L184.52575,186.990974 L184.45675,190.414154" id="Fill-6" sketch:type="MSShapeGroup"></path>
                <path d="M260.9605,203.681846 L269.53375,191.821333 L269.53375,203.681846 L260.9605,203.681846 L260.9605,203.681846 Z M270.9885,186.996718 L268.99325,186.996718 L256.188,204.721436 L256.188,207.105026 L269.53375,207.105026 L269.53375,213.279385 L273.00675,213.279385 L273.00675,207.105026 L276.3935,207.105026 L276.3935,204.124103 L273.00675,203.796718 L273.00675,186.996718 L271.207,186.996718 L270.9885,186.996718 Z" id="Fill-7" sketch:type="MSShapeGroup"></path>
                <path d="M212.005,210.643077 C208.71025,210.643077 206.13425,209.023385 206.13425,205.657641 C206.13425,202.481436 208.94025,200.896205 212.005,200.896205 C215.06975,200.896205 217.8585,202.481436 217.8585,205.657641 C217.8585,209.023385 215.294,210.643077 212.005,210.643077 M206.82425,193.83159 C206.82425,191.034462 208.67,189.409026 212.005,189.409026 C215.32275,189.409026 217.18575,191.034462 217.18575,193.83159 C217.18575,196.628718 214.60975,198.02441 212.005,198.02441 C209.199,198.02441 206.82425,196.433436 206.82425,193.83159 M216.84075,199.420103 C219.1465,198.179487 220.469,196.289846 220.469,193.636308 C220.469,188.915077 216.65675,186.537231 212.005,186.537231 C207.3475,186.537231 203.52375,188.915077 203.52375,193.636308 C203.52375,196.289846 204.8405,198.179487 207.12325,199.420103 C204.7025,200.55159 202.69575,202.521641 202.69575,205.617436 C202.69575,210.304205 206.06525,213.514872 212.005,213.514872 C217.94475,213.514872 221.3085,210.195077 221.3085,205.617436 C221.3085,202.521641 219.296,200.55159 216.84075,199.420103" id="Fill-8" sketch:type="MSShapeGroup"></path>
                <path d="M238.18475,210.643077 C234.88425,210.643077 232.30825,209.023385 232.30825,205.657641 C232.30825,202.481436 235.11425,200.896205 238.18475,200.896205 C241.2495,200.896205 244.04975,202.481436 244.04975,205.657641 C244.04975,209.023385 241.47375,210.643077 238.18475,210.643077 M233.004,193.83159 C233.004,191.034462 234.8555,189.409026 238.18475,189.409026 C241.514,189.409026 243.3655,191.034462 243.3655,193.83159 C243.3655,196.628718 240.7895,198.02441 238.18475,198.02441 C235.37875,198.02441 233.004,196.433436 233.004,193.83159 M243.0205,199.420103 C245.32625,198.179487 246.6545,196.289846 246.6545,193.636308 C246.6545,188.915077 242.8365,186.537231 238.18475,186.537231 C233.5215,186.537231 229.7035,188.915077 229.7035,193.636308 C229.7035,196.289846 231.03175,198.179487 233.303,199.420103 C230.88225,200.55159 228.8755,202.521641 228.8755,205.617436 C228.8755,210.304205 232.23925,213.514872 238.18475,213.514872 C244.113,213.514872 247.48825,210.195077 247.48825,205.617436 C247.48825,202.521641 245.47575,200.55159 243.0205,199.420103" id="Fill-9" sketch:type="MSShapeGroup"></path>
            </g>
        </g>
    </g>
</svg>