<?xml version="1.0" encoding="UTF-8" standalone="no"?>
<svg width="148px" height="148px" viewBox="0 0 148 148" version="1.1" xmlns="http://www.w3.org/2000/svg" xmlns:xlink="http://www.w3.org/1999/xlink" xmlns:sketch="http://www.bohemiancoding.com/sketch/ns">
    <!-- Generator: Sketch 3.4.4 (17248) - http://www.bohemiancoding.com/sketch -->
    <title>Oval 1 Copy</title>
    <desc>Created with Sketch.</desc>
    <defs></defs>
    <g id="CONFIRMATION" stroke="none" stroke-width="1" fill="none" fill-rule="evenodd" sketch:type="MSPage">
        <g id="All_Confirmation_Screen" sketch:type="MSArtboardGroup" transform="translate(-166.000000, -371.000000)" fill="#000000">
            <path d="M240,519 C280.869071,519 314,485.869071 314,445 C314,404.130929 280.869071,371 240,371 C199.130929,371 166,404.130929 166,445 C166,485.869071 199.130929,519 240,519 Z M204.990478,459.365943 L220.645207,472.591903 C221.427267,473.25263 222.582016,473.216071 223.320715,472.507197 L276.751942,421.233303 C277.548914,420.468509 277.574999,419.202448 276.810206,418.405476 C276.045412,417.608504 274.779351,417.582418 273.982379,418.347212 L220.551152,469.621106 L223.226661,469.536401 L207.571932,456.31044 C206.728178,455.597592 205.466303,455.703711 204.753454,456.547465 C204.040605,457.391219 204.146725,458.653094 204.990478,459.365943 Z" id="Oval-1-Copy" sketch:type="MSShapeGroup"></path>
        </g>
    </g>
</svg>