<?xml version="1.0" encoding="utf-8"?>
<!-- Generator: Adobe Illustrator 19.2.0, SVG Export Plug-In . SVG Version: 6.00 Build 0)  -->
<!DOCTYPE svg PUBLIC "-//W3C//DTD SVG 1.1//EN" "http://www.w3.org/Graphics/SVG/1.1/DTD/svg11.dtd">
<svg version="1.1" id="Layer_1" xmlns:sketch="http://www.bohemiancoding.com/sketch/ns"
	 xmlns="http://www.w3.org/2000/svg" xmlns:xlink="http://www.w3.org/1999/xlink" x="0px" y="0px" viewBox="0 0 13.1 11.4"
	 style="enable-background:new 0 0 13.1 11.4;" xml:space="preserve">
<style type="text/css">
	.st0{fill:#1194F6;}
</style>
<title>Page 1 Copy 3</title>
<desc>Created with Sketch.</desc>
<g id="Clip-2">
</g>
<path class="st0" d="M6.4,0.1L0,11.1c-0.1,0.1,0,0.3,0.2,0.3h12.7c0.2,0,0.3-0.2,0.2-0.3l-6.3-11C6.6,0,6.4,0,6.4,0.1z M6,3.2h1V8H6
	V3.2z M6.5,9.8c-0.2,0-0.3-0.1-0.5-0.2S5.9,9.4,5.9,9.2C5.9,9,6,8.8,6.1,8.7s0.3-0.2,0.5-0.2S6.9,8.6,7,8.7S7.2,9,7.2,9.2
	c0,0.2-0.1,0.3-0.2,0.5C6.9,9.8,6.7,9.8,6.5,9.8z"/>
</svg>
